<svg viewBox="0 0 68 76" fill="none" xmlns="http://www.w3.org/2000/svg"><path d="M31.3704 1.60674C33.1163 0.598738 35.2673 0.598736 37.0133 1.60674L64.3567 17.3935C66.1026 18.4015 67.1781 20.2643 67.1781 22.2803V53.8538C67.1781 55.8698 66.1026 57.7327 64.3567 58.7407L37.0133 74.5274C35.2674 75.5354 33.1163 75.5354 31.3704 74.5274L4.02697 58.7407C2.28106 57.7327 1.20554 55.8698 1.20554 53.8538V22.2803C1.20554 20.2643 2.28106 18.4015 4.02696 17.3935L31.3704 1.60674Z" stroke="url(#paint0_linear_159_39621)" stroke-width="0.705357"/><path d="M32.4283 14.8594C33.5195 14.2294 34.8639 14.2294 35.9551 14.8594L53.7138 25.1124C54.805 25.7424 55.4772 26.9067 55.4772 28.1667V48.6727C55.4772 49.9327 54.805 51.097 53.7138 51.727L35.9551 61.98C34.8639 62.61 33.5195 62.61 32.4283 61.98L14.6696 51.727C13.5784 51.097 12.9062 49.9327 12.9062 48.6727V28.1667C12.9062 26.9067 13.5784 25.7424 14.6696 25.1124L32.4283 14.8594Z" stroke="rgb(235,75,75)" stroke-width="1.41071"/><path opacity="0.25" d="M32.781 23.7163C33.6539 23.2123 34.7294 23.2123 35.6024 23.7163L46.2198 29.8463C47.0928 30.3503 47.6305 31.2817 47.6305 32.2897V44.5497C47.6305 45.5577 47.0928 46.4891 46.2198 46.9931L35.6024 53.1231C34.7294 53.6271 33.6539 53.6271 32.781 53.1231L22.1635 46.9931C21.2906 46.4891 20.7528 45.5577 20.7528 44.5497V32.2897C20.7528 31.2817 21.2906 30.3503 22.1635 29.8463L32.781 23.7163Z" fill="url(#gr)"/><defs><linearGradient id="paint0_linear_159_39621" x1="34.2368" y1="76.1564" x2="34.2358" y2="-0.0222212" gradientUnits="userSpaceOnUse"><stop stop-color="#284571"/><stop offset="1" stop-color="#284571" stop-opacity="0"/></linearGradient><linearGradient id="gr" x1="34.1917" y1="22.9019" x2="34.1917" y2="53.9376" gradientUnits="userSpaceOnUse"><stop stop-color="rgb(235,75,75)" stop-opacity="0"/><stop offset="1" stop-color="rgb(235,75,75)"/></linearGradient></defs></svg>