<svg width="35" height="36" viewBox="0 0 35 36" fill="none" xmlns="http://www.w3.org/2000/svg">
<path d="M16.3608 5.0762C16.7662 4.93574 17.209 5.053 17.5805 5.23622C17.8401 5.40335 18.0997 5.57226 18.3904 5.68161C18.4126 5.72339 18.4589 5.80607 18.4811 5.84696C18.4695 5.87452 18.4473 5.93142 18.4358 5.95897C18.6429 6.43014 18.7753 6.98843 18.5744 7.48351C18.4375 7.65064 18.1993 7.67651 18.0064 7.74123C18.0055 7.98037 18.0437 8.21693 18.0642 8.45429C18.4766 8.52096 18.8258 8.23382 19.2339 8.26227C19.289 8.0338 19.3326 7.80159 19.4056 7.57765C19.4901 7.72612 19.4936 7.89689 19.4945 8.06402C19.6012 8.09425 19.7097 8.12181 19.8188 8.14839C19.8199 8.18937 19.8207 8.27116 19.8207 8.31205C21.6094 8.32272 23.397 8.30396 25.1858 8.32183C25.1813 8.38299 25.1726 8.50576 25.1691 8.56719C25.2153 8.56719 25.3095 8.56808 25.3565 8.56808C25.3547 8.2428 25.3565 7.91645 25.3556 7.59117C25.4009 7.5893 25.4898 7.58663 25.5343 7.58574C25.5353 7.84177 25.5361 8.0978 25.5388 8.35392C25.5778 8.40193 25.6561 8.49785 25.6954 8.54586C25.7247 8.5111 25.7833 8.44282 25.8125 8.40806C25.9485 8.53528 25.8712 8.70952 25.8652 8.86581C26.3657 8.86038 26.8713 8.89416 27.3702 8.85327C27.4076 8.82571 27.4822 8.77148 27.5196 8.74401C27.5881 8.77059 27.6574 8.79735 27.7258 8.82491C27.9507 8.8194 28.1765 8.81869 28.4023 8.8178C28.3977 8.93426 28.3942 9.05063 28.3897 9.16717C28.099 9.16264 27.8074 9.15651 27.5212 9.2062C27.3363 9.04716 27.0882 9.09765 26.8651 9.09161C26.5219 9.10761 26.1679 9.04716 25.8356 9.15642C25.6381 9.21153 25.4214 9.19829 25.2471 9.08619C25.2052 9.1902 25.2694 9.42311 25.094 9.41414C24.4042 9.42311 23.7152 9.408 23.0262 9.41867C22.932 9.46845 22.8369 9.51557 22.7428 9.56171C22.6433 9.85863 22.3579 10.0568 22.115 10.2381C22.0848 10.6942 22.2653 11.12 22.3355 11.5627C22.1995 11.6017 22.0626 11.6419 21.9283 11.6863C21.7354 12.1415 21.8537 12.7628 21.4074 13.0803C21.0651 13.2794 20.8386 13.7123 20.377 13.644C20.6117 13.8395 20.313 13.7782 20.3442 13.6217C19.5094 13.548 18.8062 13.0581 18.0808 12.6848C18.047 12.8892 17.9937 13.0902 17.9385 13.2902C18.2141 13.3427 18.4417 13.5454 18.4906 13.8281C18.5786 14.4442 18.4026 15.056 18.4053 15.6737C18.4248 16.0364 18.2692 16.3688 18.0754 16.6649C17.9056 16.8569 17.6381 16.6594 17.4345 16.6311C17.3882 16.7209 17.3429 16.8107 17.2985 16.9013C17.3562 17.143 17.3811 17.3946 17.462 17.6311C17.9163 18.1334 18.3297 18.6775 18.6471 19.2776C18.9738 19.9572 19.2649 20.6533 19.5193 21.3631C19.5441 21.501 19.6739 21.5505 19.7878 21.6005C19.8029 21.7427 19.818 21.8848 19.8323 22.0289C19.8767 22.0938 19.9221 22.1586 19.9683 22.2244C19.9958 23.101 19.8883 23.9739 19.7521 24.8389C19.6678 25.2292 19.8961 25.6105 19.8036 26.0035C19.8143 26.2046 19.6758 26.3566 19.6107 26.5344C19.5983 26.9495 19.5778 27.3699 19.6234 27.7844C19.6552 28.0884 19.9123 28.2839 20.0865 28.5107C20.2768 28.7126 20.4359 28.9836 20.7239 29.0556C20.9951 29.1365 21.2538 29.2538 21.4927 29.4077C21.5656 29.5881 21.5523 29.7794 21.5176 29.9668C20.9967 30.0628 20.4651 30.0149 19.9388 30.023C19.5332 30.0442 19.1716 29.8264 18.7776 29.781C18.3962 29.7714 17.9312 29.9606 17.6381 29.6193C17.7623 29.1456 17.7723 28.6369 17.9997 28.195C18.0726 27.6946 17.9341 27.1869 17.9633 26.6819C17.9199 26.6455 17.8326 26.5726 17.789 26.536C17.8203 26.2062 17.6575 25.9128 17.6032 25.5973C17.5678 25.1365 17.5259 24.6762 17.4725 24.2175C17.4307 23.9943 17.5463 23.79 17.7037 23.6415C17.7179 23.3837 17.7527 23.1285 17.7775 22.8725C17.7392 22.7062 17.6068 22.5827 17.5214 22.4405C17.2361 22.5607 16.8511 22.5037 16.6813 22.2244C16.2787 21.6253 15.8768 21.0261 15.4696 20.4304C15.3096 20.4198 15.1407 20.4366 14.9913 20.3726C14.8191 20.1958 14.7291 19.9602 14.619 19.745C14.4616 19.9219 14.4731 20.193 14.2866 20.354C13.8918 20.7328 13.7869 21.2893 13.5807 21.7746C13.4226 22.0892 13.5115 22.4688 13.3353 22.7756C13.2411 22.9409 13.0046 22.9738 12.9424 23.1624C12.8606 23.3658 12.7646 23.5766 12.5735 23.7003C12.3663 23.8362 12.3113 24.0942 12.2189 24.3074C12.1345 24.5039 12.2598 24.7101 12.2305 24.912C12.0989 25.553 11.6909 26.089 11.5193 26.7167C11.4411 26.9994 11.329 27.3177 11 27.378C10.6258 28.0465 10.4196 28.8645 10.6312 29.6172C10.761 29.8537 10.7539 30.1195 10.7139 30.38C10.1192 30.4263 9.50928 30.5062 8.9253 30.3401C8.7884 30.0688 8.80795 29.7497 8.8364 29.4566C9.01678 28.6856 9.25601 27.9283 9.4026 27.1496C9.21947 26.9869 9.26223 26.738 9.2657 26.5201C9.25956 26.1139 9.53595 25.7885 9.72797 25.4551C9.80007 25.1129 9.76629 24.7451 9.94311 24.431C10.1512 24.0381 10.3272 23.6132 10.6482 23.2958C10.7094 23.0157 10.9158 22.8042 10.9992 22.5346C11.0881 22.2964 10.9326 22.0546 10.9639 21.8111C11.0402 21.0721 11.1745 20.3406 11.291 19.6072C11.0706 19.4231 11.1416 19.1307 11.0714 18.8826C11.1061 18.7848 11.1497 18.6916 11.2021 18.6008C11.147 18.5501 11.0928 18.4986 11.0376 18.448C11.091 18.1873 11.0759 17.7205 11.4759 17.8053C11.5008 16.942 11.2012 16.1064 11.3017 15.2422C11.355 15.3043 11.4074 15.3675 11.4608 15.4307L11.4324 15.1382C11.5995 15.0493 11.7773 14.9808 11.964 14.9462C11.6599 14.9062 11.3639 14.8289 11.0659 14.7595C10.9939 14.57 11.0341 14.3683 11.0606 14.1745C11.1761 13.5202 11.2188 12.857 11.2428 12.1938C11.5797 12.0767 11.9513 12.1761 12.2803 12.0196C12.1782 11.1902 12.1524 10.3244 12.4474 9.52864C12.6848 8.85114 13.1382 8.19773 13.8458 7.95957C14.1801 7.87964 14.6005 7.78977 14.8368 8.11425C14.9017 8.05469 14.9666 7.99335 15.0315 7.93378C14.492 6.86219 15.1365 5.29667 16.3608 5.0762ZM20.6786 9.72386C20.5364 9.81098 20.3968 9.91064 20.5463 10.0689C20.4734 10.1124 20.4003 10.1542 20.3265 10.1941C20.211 10.283 19.9514 10.3336 19.9816 10.5134C20.1115 10.7219 20.2233 10.941 20.316 11.1685C20.5995 10.9356 20.8253 10.6225 20.9782 10.2911C21.0102 10.2582 21.0752 10.1925 21.1071 10.1604C21.0929 10.0083 21.0591 9.85979 20.9995 9.71942C20.8928 9.72128 20.7853 9.72297 20.6786 9.72386Z" fill="#8191A4"/>
</svg>
