<?xml version="1.0" standalone="no"?><svg xmlns:xlink="http://www.w3.org/1999/xlink" xmlns="http://www.w3.org/2000/svg" viewBox="0 0 1000 562.4973527044771" preserveAspectRatio="xMaxYMax slice"><g transform="scale(0.8471345673260197)"><rect x="0" y="0" width="1254.2222222222222" height="664" fill="#ffffff"/><g transform="translate(0,0) scale(3.689) rotate(0)"><path d="M10 5L5 0L0 5L5 10L0 15L5 20L10 15L15 20L20 15L15 10L20 5L15 0L10 5Z" fill="#ffdf54"/></g><g transform="translate(73.78,0) scale(3.689) rotate(0)"><path d="M10 5L5 0L0 5L5 10L0 15L5 20L10 15L15 20L20 15L15 10L20 5L15 0L10 5Z" fill="#e6e8fa"/></g><g transform="translate(147.56,0) scale(3.689) rotate(0)"><path d="M10 5L5 0L0 5L5 10L0 15L5 20L10 15L15 20L20 15L15 10L20 5L15 0L10 5Z" fill="#ffd209"/></g><g transform="translate(221.33,0) scale(3.689) rotate(0)"><path d="M10 5L5 0L0 5L5 10L0 15L5 20L10 15L15 20L20 15L15 10L20 5L15 0L10 5Z" fill="#a4abeb"/></g><g transform="translate(295.11,0) scale(3.689) rotate(0)"><path d="M10 5L5 0L0 5L5 10L0 15L5 20L10 15L15 20L20 15L15 10L20 5L15 0L10 5Z" fill="#8791e5"/></g><rect x="368.88888888888886" y="0" width="73.77777777777777" height="73.77777777777777" fill="#ffffff"/><g transform="translate(368.89,0) scale(1.8445) rotate(0)"><path d="M10 5L5 0L0 5L5 10L0 15L5 20L10 15L15 20L20 15L15 10L20 5L15 0L10 5Z" fill="#fffcf0"/></g><g transform="translate(405.78,0) scale(1.8445) rotate(0)"><path d="M10 5L5 0L0 5L5 10L0 15L5 20L10 15L15 20L20 15L15 10L20 5L15 0L10 5Z" fill="#959ee8"/></g><g transform="translate(368.89,36.89) scale(1.8445) rotate(0)"><path d="M10 5L5 0L0 5L5 10L0 15L5 20L10 15L15 20L20 15L15 10L20 5L15 0L10 5Z" fill="#ffe884"/></g><g transform="translate(405.78,36.89) scale(1.8445) rotate(0)"><path d="M10 5L5 0L0 5L5 10L0 15L5 20L10 15L15 20L20 15L15 10L20 5L15 0L10 5Z" fill="#fffffe"/></g><g transform="translate(442.67,0) scale(3.689) rotate(0)"><path d="M10 5L5 0L0 5L5 10L0 15L5 20L10 15L15 20L20 15L15 10L20 5L15 0L10 5Z" fill="#ffd932"/></g><g transform="translate(516.44,0) scale(3.689) rotate(0)"><path d="M10 5L5 0L0 5L5 10L0 15L5 20L10 15L15 20L20 15L15 10L20 5L15 0L10 5Z" fill="#8f98e7"/></g><g transform="translate(590.22,0) scale(3.689) rotate(0)"><path d="M10 5L5 0L0 5L5 10L0 15L5 20L10 15L15 20L20 15L15 10L20 5L15 0L10 5Z" fill="#bcc1f0"/></g><rect x="664" y="0" width="73.77777777777777" height="73.77777777777777" fill="#ffffff"/><g transform="translate(664,0) scale(1.8445) rotate(0)"><path d="M10 5L5 0L0 5L5 10L0 15L5 20L10 15L15 20L20 15L15 10L20 5L15 0L10 5Z" fill="#3f4fd5"/></g><g transform="translate(700.89,0) scale(1.8445) rotate(0)"><path d="M10 5L5 0L0 5L5 10L0 15L5 20L10 15L15 20L20 15L15 10L20 5L15 0L10 5Z" fill="#ffea8b"/></g><g transform="translate(664,36.89) scale(1.8445) rotate(0)"><path d="M10 5L5 0L0 5L5 10L0 15L5 20L10 15L15 20L20 15L15 10L20 5L15 0L10 5Z" fill="#ffda36"/></g><g transform="translate(700.89,36.89) scale(1.8445) rotate(0)"><path d="M10 5L5 0L0 5L5 10L0 15L5 20L10 15L15 20L20 15L15 10L20 5L15 0L10 5Z" fill="#ffd002"/></g><g transform="translate(737.78,0) scale(3.689) rotate(0)"><path d="M10 5L5 0L0 5L5 10L0 15L5 20L10 15L15 20L20 15L15 10L20 5L15 0L10 5Z" fill="#fffdf5"/></g><rect x="811.5555555555554" y="0" width="73.77777777777777" height="73.77777777777777" fill="#ffffff"/><g transform="translate(811.56,0) scale(1.8445) rotate(0)"><path d="M10 5L5 0L0 5L5 10L0 15L5 20L10 15L15 20L20 15L15 10L20 5L15 0L10 5Z" fill="#6a76df"/></g><g transform="translate(848.44,0) scale(1.8445) rotate(0)"><path d="M10 5L5 0L0 5L5 10L0 15L5 20L10 15L15 20L20 15L15 10L20 5L15 0L10 5Z" fill="#4f5ed9"/></g><g transform="translate(811.56,36.89) scale(1.8445) rotate(0)"><path d="M10 5L5 0L0 5L5 10L0 15L5 20L10 15L15 20L20 15L15 10L20 5L15 0L10 5Z" fill="#f9fafe"/></g><g transform="translate(848.44,36.89) scale(1.8445) rotate(0)"><path d="M10 5L5 0L0 5L5 10L0 15L5 20L10 15L15 20L20 15L15 10L20 5L15 0L10 5Z" fill="#fff5cb"/></g><rect x="885.3333333333333" y="0" width="73.77777777777777" height="73.77777777777777" fill="#ffffff"/><g transform="translate(885.33,0) scale(1.8445) rotate(0)"><path d="M10 5L5 0L0 5L5 10L0 15L5 20L10 15L15 20L20 15L15 10L20 5L15 0L10 5Z" fill="#707ce0"/></g><g transform="translate(922.22,0) scale(1.8445) rotate(0)"><path d="M10 5L5 0L0 5L5 10L0 15L5 20L10 15L15 20L20 15L15 10L20 5L15 0L10 5Z" fill="#a8afec"/></g><g transform="translate(885.33,36.89) scale(1.8445) rotate(0)"><path d="M10 5L5 0L0 5L5 10L0 15L5 20L10 15L15 20L20 15L15 10L20 5L15 0L10 5Z" fill="#fff5c7"/></g><g transform="translate(922.22,36.89) scale(1.8445) rotate(0)"><path d="M10 5L5 0L0 5L5 10L0 15L5 20L10 15L15 20L20 15L15 10L20 5L15 0L10 5Z" fill="#4454d7"/></g><g transform="translate(959.11,0) scale(3.689) rotate(0)"><path d="M10 5L5 0L0 5L5 10L0 15L5 20L10 15L15 20L20 15L15 10L20 5L15 0L10 5Z" fill="#ffeea1"/></g><g transform="translate(1032.89,0) scale(3.689) rotate(0)"><path d="M10 5L5 0L0 5L5 10L0 15L5 20L10 15L15 20L20 15L15 10L20 5L15 0L10 5Z" fill="#5765db"/></g><g transform="translate(1106.67,0) scale(3.689) rotate(0)"><path d="M10 5L5 0L0 5L5 10L0 15L5 20L10 15L15 20L20 15L15 10L20 5L15 0L10 5Z" fill="#7e89e3"/></g><g transform="translate(1180.44,0) scale(3.689) rotate(0)"><path d="M10 5L5 0L0 5L5 10L0 15L5 20L10 15L15 20L20 15L15 10L20 5L15 0L10 5Z" fill="#ffe264"/></g><g transform="translate(0,73.78) scale(3.689) rotate(0)"><path d="M10 5L5 0L0 5L5 10L0 15L5 20L10 15L15 20L20 15L15 10L20 5L15 0L10 5Z" fill="#ffd106"/></g><g transform="translate(73.78,73.78) scale(3.689) rotate(0)"><path d="M10 5L5 0L0 5L5 10L0 15L5 20L10 15L15 20L20 15L15 10L20 5L15 0L10 5Z" fill="#a1a9eb"/></g><g transform="translate(147.56,73.78) scale(3.689) rotate(0)"><path d="M10 5L5 0L0 5L5 10L0 15L5 20L10 15L15 20L20 15L15 10L20 5L15 0L10 5Z" fill="#ffe676"/></g><g transform="translate(221.33,73.78) scale(3.689) rotate(0)"><path d="M10 5L5 0L0 5L5 10L0 15L5 20L10 15L15 20L20 15L15 10L20 5L15 0L10 5Z" fill="#8690e5"/></g><g transform="translate(295.11,73.78) scale(3.689) rotate(0)"><path d="M10 5L5 0L0 5L5 10L0 15L5 20L10 15L15 20L20 15L15 10L20 5L15 0L10 5Z" fill="#fff6ce"/></g><g transform="translate(368.89,73.78) scale(3.689) rotate(0)"><path d="M10 5L5 0L0 5L5 10L0 15L5 20L10 15L15 20L20 15L15 10L20 5L15 0L10 5Z" fill="#7a85e2"/></g><g transform="translate(442.67,73.78) scale(3.689) rotate(0)"><path d="M10 5L5 0L0 5L5 10L0 15L5 20L10 15L15 20L20 15L15 10L20 5L15 0L10 5Z" fill="#e4e7f9"/></g><g transform="translate(516.44,73.78) scale(3.689) rotate(0)"><path d="M10 5L5 0L0 5L5 10L0 15L5 20L10 15L15 20L20 15L15 10L20 5L15 0L10 5Z" fill="#fff1b2"/></g><g transform="translate(590.22,73.78) scale(3.689) rotate(0)"><path d="M10 5L5 0L0 5L5 10L0 15L5 20L10 15L15 20L20 15L15 10L20 5L15 0L10 5Z" fill="#c8ccf3"/></g><rect x="664" y="73.77777777777777" width="73.77777777777777" height="73.77777777777777" fill="#ffffff"/><g transform="translate(664,73.78) scale(1.8445) rotate(0)"><path d="M10 5L5 0L0 5L5 10L0 15L5 20L10 15L15 20L20 15L15 10L20 5L15 0L10 5Z" fill="#ffd931"/></g><g transform="translate(700.89,73.78) scale(1.8445) rotate(0)"><path d="M10 5L5 0L0 5L5 10L0 15L5 20L10 15L15 20L20 15L15 10L20 5L15 0L10 5Z" fill="#5866db"/></g><g transform="translate(664,110.67) scale(1.8445) rotate(0)"><path d="M10 5L5 0L0 5L5 10L0 15L5 20L10 15L15 20L20 15L15 10L20 5L15 0L10 5Z" fill="#a2aaeb"/></g><g transform="translate(700.89,110.67) scale(1.8445) rotate(0)"><path d="M10 5L5 0L0 5L5 10L0 15L5 20L10 15L15 20L20 15L15 10L20 5L15 0L10 5Z" fill="#bdc2f1"/></g><g transform="translate(737.78,73.78) scale(3.689) rotate(0)"><path d="M10 5L5 0L0 5L5 10L0 15L5 20L10 15L15 20L20 15L15 10L20 5L15 0L10 5Z" fill="#c7cbf3"/></g><g transform="translate(811.56,73.78) scale(3.689) rotate(0)"><path d="M10 5L5 0L0 5L5 10L0 15L5 20L10 15L15 20L20 15L15 10L20 5L15 0L10 5Z" fill="#f5f6fd"/></g><rect x="885.3333333333333" y="73.77777777777777" width="73.77777777777777" height="73.77777777777777" fill="#ffffff"/><g transform="translate(885.33,73.78) scale(1.8445) rotate(0)"><path d="M10 5L5 0L0 5L5 10L0 15L5 20L10 15L15 20L20 15L15 10L20 5L15 0L10 5Z" fill="#ffea8c"/></g><g transform="translate(922.22,73.78) scale(1.8445) rotate(0)"><path d="M10 5L5 0L0 5L5 10L0 15L5 20L10 15L15 20L20 15L15 10L20 5L15 0L10 5Z" fill="#bfc4f1"/></g><g transform="translate(885.33,110.67) scale(1.8445) rotate(0)"><path d="M10 5L5 0L0 5L5 10L0 15L5 20L10 15L15 20L20 15L15 10L20 5L15 0L10 5Z" fill="#adb4ed"/></g><g transform="translate(922.22,110.67) scale(1.8445) rotate(0)"><path d="M10 5L5 0L0 5L5 10L0 15L5 20L10 15L15 20L20 15L15 10L20 5L15 0L10 5Z" fill="#959ee8"/></g><g transform="translate(959.11,73.78) scale(3.689) rotate(0)"><path d="M10 5L5 0L0 5L5 10L0 15L5 20L10 15L15 20L20 15L15 10L20 5L15 0L10 5Z" fill="#ffd92f"/></g><g transform="translate(1032.89,73.78) scale(3.689) rotate(0)"><path d="M10 5L5 0L0 5L5 10L0 15L5 20L10 15L15 20L20 15L15 10L20 5L15 0L10 5Z" fill="#d2d6f5"/></g><rect x="1106.6666666666665" y="73.77777777777777" width="73.77777777777777" height="73.77777777777777" fill="#ffffff"/><g transform="translate(1106.67,73.78) scale(1.8445) rotate(0)"><path d="M10 5L5 0L0 5L5 10L0 15L5 20L10 15L15 20L20 15L15 10L20 5L15 0L10 5Z" fill="#4d5cd9"/></g><g transform="translate(1143.56,73.78) scale(1.8445) rotate(0)"><path d="M10 5L5 0L0 5L5 10L0 15L5 20L10 15L15 20L20 15L15 10L20 5L15 0L10 5Z" fill="#fff1b1"/></g><g transform="translate(1106.67,110.67) scale(1.8445) rotate(0)"><path d="M10 5L5 0L0 5L5 10L0 15L5 20L10 15L15 20L20 15L15 10L20 5L15 0L10 5Z" fill="#fff0ac"/></g><g transform="translate(1143.56,110.67) scale(1.8445) rotate(0)"><path d="M10 5L5 0L0 5L5 10L0 15L5 20L10 15L15 20L20 15L15 10L20 5L15 0L10 5Z" fill="#b2b8ee"/></g><g transform="translate(1180.44,73.78) scale(3.689) rotate(0)"><path d="M10 5L5 0L0 5L5 10L0 15L5 20L10 15L15 20L20 15L15 10L20 5L15 0L10 5Z" fill="#7984e2"/></g><g transform="translate(0,147.56) scale(3.689) rotate(0)"><path d="M10 5L5 0L0 5L5 10L0 15L5 20L10 15L15 20L20 15L15 10L20 5L15 0L10 5Z" fill="#ffda36"/></g><g transform="translate(73.78,147.56) scale(3.689) rotate(0)"><path d="M10 5L5 0L0 5L5 10L0 15L5 20L10 15L15 20L20 15L15 10L20 5L15 0L10 5Z" fill="#ffe884"/></g><g transform="translate(147.56,147.56) scale(3.689) rotate(0)"><path d="M10 5L5 0L0 5L5 10L0 15L5 20L10 15L15 20L20 15L15 10L20 5L15 0L10 5Z" fill="#a9b0ec"/></g><rect x="221.33333333333331" y="147.55555555555554" width="73.77777777777777" height="73.77777777777777" fill="#ffffff"/><g transform="translate(221.33,147.56) scale(1.8445) rotate(0)"><path d="M10 5L5 0L0 5L5 10L0 15L5 20L10 15L15 20L20 15L15 10L20 5L15 0L10 5Z" fill="#ffd622"/></g><g transform="translate(258.22,147.56) scale(1.8445) rotate(0)"><path d="M10 5L5 0L0 5L5 10L0 15L5 20L10 15L15 20L20 15L15 10L20 5L15 0L10 5Z" fill="#838de4"/></g><g transform="translate(221.33,184.44) scale(1.8445) rotate(0)"><path d="M10 5L5 0L0 5L5 10L0 15L5 20L10 15L15 20L20 15L15 10L20 5L15 0L10 5Z" fill="#848ee4"/></g><g transform="translate(258.22,184.44) scale(1.8445) rotate(0)"><path d="M10 5L5 0L0 5L5 10L0 15L5 20L10 15L15 20L20 15L15 10L20 5L15 0L10 5Z" fill="#5664da"/></g><g transform="translate(295.11,147.56) scale(3.689) rotate(0)"><path d="M10 5L5 0L0 5L5 10L0 15L5 20L10 15L15 20L20 15L15 10L20 5L15 0L10 5Z" fill="#ffdd48"/></g><rect x="368.88888888888886" y="147.55555555555554" width="73.77777777777777" height="73.77777777777777" fill="#ffffff"/><g transform="translate(368.89,147.56) scale(1.8445) rotate(0)"><path d="M10 5L5 0L0 5L5 10L0 15L5 20L10 15L15 20L20 15L15 10L20 5L15 0L10 5Z" fill="#fff0af"/></g><g transform="translate(405.78,147.56) scale(1.8445) rotate(0)"><path d="M10 5L5 0L0 5L5 10L0 15L5 20L10 15L15 20L20 15L15 10L20 5L15 0L10 5Z" fill="#5462da"/></g><g transform="translate(368.89,184.44) scale(1.8445) rotate(0)"><path d="M10 5L5 0L0 5L5 10L0 15L5 20L10 15L15 20L20 15L15 10L20 5L15 0L10 5Z" fill="#fcfcfe"/></g><g transform="translate(405.78,184.44) scale(1.8445) rotate(0)"><path d="M10 5L5 0L0 5L5 10L0 15L5 20L10 15L15 20L20 15L15 10L20 5L15 0L10 5Z" fill="#ffd622"/></g><g transform="translate(442.67,147.56) scale(3.689) rotate(0)"><path d="M10 5L5 0L0 5L5 10L0 15L5 20L10 15L15 20L20 15L15 10L20 5L15 0L10 5Z" fill="#e0e3f8"/></g><g transform="translate(516.44,147.56) scale(3.689) rotate(0)"><path d="M10 5L5 0L0 5L5 10L0 15L5 20L10 15L15 20L20 15L15 10L20 5L15 0L10 5Z" fill="#fff8d9"/></g><g transform="translate(590.22,147.56) scale(3.689) rotate(0)"><path d="M10 5L5 0L0 5L5 10L0 15L5 20L10 15L15 20L20 15L15 10L20 5L15 0L10 5Z" fill="#cacef4"/></g><g transform="translate(664,147.56) scale(3.689) rotate(0)"><path d="M10 5L5 0L0 5L5 10L0 15L5 20L10 15L15 20L20 15L15 10L20 5L15 0L10 5Z" fill="#505ed9"/></g><g transform="translate(737.78,147.56) scale(3.689) rotate(0)"><path d="M10 5L5 0L0 5L5 10L0 15L5 20L10 15L15 20L20 15L15 10L20 5L15 0L10 5Z" fill="#ffe263"/></g><g transform="translate(811.56,147.56) scale(3.689) rotate(0)"><path d="M10 5L5 0L0 5L5 10L0 15L5 20L10 15L15 20L20 15L15 10L20 5L15 0L10 5Z" fill="#fffffd"/></g><g transform="translate(885.33,147.56) scale(3.689) rotate(0)"><path d="M10 5L5 0L0 5L5 10L0 15L5 20L10 15L15 20L20 15L15 10L20 5L15 0L10 5Z" fill="#ffd103"/></g><g transform="translate(959.11,147.56) scale(3.689) rotate(0)"><path d="M10 5L5 0L0 5L5 10L0 15L5 20L10 15L15 20L20 15L15 10L20 5L15 0L10 5Z" fill="#9da6ea"/></g><g transform="translate(1032.89,147.56) scale(3.689) rotate(0)"><path d="M10 5L5 0L0 5L5 10L0 15L5 20L10 15L15 20L20 15L15 10L20 5L15 0L10 5Z" fill="#fff9dc"/></g><g transform="translate(1106.67,147.56) scale(3.689) rotate(0)"><path d="M10 5L5 0L0 5L5 10L0 15L5 20L10 15L15 20L20 15L15 10L20 5L15 0L10 5Z" fill="#f3f4fc"/></g><g transform="translate(1180.44,147.56) scale(3.689) rotate(0)"><path d="M10 5L5 0L0 5L5 10L0 15L5 20L10 15L15 20L20 15L15 10L20 5L15 0L10 5Z" fill="#ffe675"/></g><rect x="0" y="221.33333333333331" width="73.77777777777777" height="73.77777777777777" fill="#ffffff"/><g transform="translate(0,221.33) scale(1.8445) rotate(0)"><path d="M10 5L5 0L0 5L5 10L0 15L5 20L10 15L15 20L20 15L15 10L20 5L15 0L10 5Z" fill="#fff6cc"/></g><g transform="translate(36.89,221.33) scale(1.8445) rotate(0)"><path d="M10 5L5 0L0 5L5 10L0 15L5 20L10 15L15 20L20 15L15 10L20 5L15 0L10 5Z" fill="#ffd82b"/></g><g transform="translate(0,258.22) scale(1.8445) rotate(0)"><path d="M10 5L5 0L0 5L5 10L0 15L5 20L10 15L15 20L20 15L15 10L20 5L15 0L10 5Z" fill="#6d79df"/></g><g transform="translate(36.89,258.22) scale(1.8445) rotate(0)"><path d="M10 5L5 0L0 5L5 10L0 15L5 20L10 15L15 20L20 15L15 10L20 5L15 0L10 5Z" fill="#7e88e3"/></g><g transform="translate(73.78,221.33) scale(3.689) rotate(0)"><path d="M10 5L5 0L0 5L5 10L0 15L5 20L10 15L15 20L20 15L15 10L20 5L15 0L10 5Z" fill="#808ae3"/></g><g transform="translate(147.56,221.33) scale(3.689) rotate(0)"><path d="M10 5L5 0L0 5L5 10L0 15L5 20L10 15L15 20L20 15L15 10L20 5L15 0L10 5Z" fill="#b7bdef"/></g><rect x="221.33333333333331" y="221.33333333333331" width="73.77777777777777" height="73.77777777777777" fill="#ffffff"/><g transform="translate(221.33,221.33) scale(1.8445) rotate(0)"><path d="M10 5L5 0L0 5L5 10L0 15L5 20L10 15L15 20L20 15L15 10L20 5L15 0L10 5Z" fill="#7c87e3"/></g><g transform="translate(258.22,221.33) scale(1.8445) rotate(0)"><path d="M10 5L5 0L0 5L5 10L0 15L5 20L10 15L15 20L20 15L15 10L20 5L15 0L10 5Z" fill="#ffdb3a"/></g><g transform="translate(221.33,258.22) scale(1.8445) rotate(0)"><path d="M10 5L5 0L0 5L5 10L0 15L5 20L10 15L15 20L20 15L15 10L20 5L15 0L10 5Z" fill="#e0e2f8"/></g><g transform="translate(258.22,258.22) scale(1.8445) rotate(0)"><path d="M10 5L5 0L0 5L5 10L0 15L5 20L10 15L15 20L20 15L15 10L20 5L15 0L10 5Z" fill="#e0e2f8"/></g><g transform="translate(295.11,221.33) scale(3.689) rotate(0)"><path d="M10 5L5 0L0 5L5 10L0 15L5 20L10 15L15 20L20 15L15 10L20 5L15 0L10 5Z" fill="#ffe675"/></g><g transform="translate(368.89,221.33) scale(3.689) rotate(0)"><path d="M10 5L5 0L0 5L5 10L0 15L5 20L10 15L15 20L20 15L15 10L20 5L15 0L10 5Z" fill="#fffae5"/></g><g transform="translate(442.67,221.33) scale(3.689) rotate(0)"><path d="M10 5L5 0L0 5L5 10L0 15L5 20L10 15L15 20L20 15L15 10L20 5L15 0L10 5Z" fill="#ffda34"/></g><rect x="516.4444444444443" y="221.33333333333331" width="73.77777777777777" height="73.77777777777777" fill="#ffffff"/><g transform="translate(516.44,221.33) scale(1.8445) rotate(0)"><path d="M10 5L5 0L0 5L5 10L0 15L5 20L10 15L15 20L20 15L15 10L20 5L15 0L10 5Z" fill="#c8ccf3"/></g><g transform="translate(553.33,221.33) scale(1.8445) rotate(0)"><path d="M10 5L5 0L0 5L5 10L0 15L5 20L10 15L15 20L20 15L15 10L20 5L15 0L10 5Z" fill="#d7daf6"/></g><g transform="translate(516.44,258.22) scale(1.8445) rotate(0)"><path d="M10 5L5 0L0 5L5 10L0 15L5 20L10 15L15 20L20 15L15 10L20 5L15 0L10 5Z" fill="#ffe988"/></g><g transform="translate(553.33,258.22) scale(1.8445) rotate(0)"><path d="M10 5L5 0L0 5L5 10L0 15L5 20L10 15L15 20L20 15L15 10L20 5L15 0L10 5Z" fill="#eceefb"/></g><rect x="590.2222222222222" y="221.33333333333331" width="73.77777777777777" height="73.77777777777777" fill="#ffffff"/><g transform="translate(590.22,221.33) scale(1.8445) rotate(0)"><path d="M10 5L5 0L0 5L5 10L0 15L5 20L10 15L15 20L20 15L15 10L20 5L15 0L10 5Z" fill="#acb3ed"/></g><g transform="translate(627.11,221.33) scale(1.8445) rotate(0)"><path d="M10 5L5 0L0 5L5 10L0 15L5 20L10 15L15 20L20 15L15 10L20 5L15 0L10 5Z" fill="#ffda37"/></g><g transform="translate(590.22,258.22) scale(1.8445) rotate(0)"><path d="M10 5L5 0L0 5L5 10L0 15L5 20L10 15L15 20L20 15L15 10L20 5L15 0L10 5Z" fill="#929be7"/></g><g transform="translate(627.11,258.22) scale(1.8445) rotate(0)"><path d="M10 5L5 0L0 5L5 10L0 15L5 20L10 15L15 20L20 15L15 10L20 5L15 0L10 5Z" fill="#ffe77b"/></g><g transform="translate(664,221.33) scale(3.689) rotate(0)"><path d="M10 5L5 0L0 5L5 10L0 15L5 20L10 15L15 20L20 15L15 10L20 5L15 0L10 5Z" fill="#5c69dc"/></g><g transform="translate(737.78,221.33) scale(3.689) rotate(0)"><path d="M10 5L5 0L0 5L5 10L0 15L5 20L10 15L15 20L20 15L15 10L20 5L15 0L10 5Z" fill="#fff5c7"/></g><g transform="translate(811.56,221.33) scale(3.689) rotate(0)"><path d="M10 5L5 0L0 5L5 10L0 15L5 20L10 15L15 20L20 15L15 10L20 5L15 0L10 5Z" fill="#eff0fb"/></g><rect x="885.3333333333333" y="221.33333333333331" width="73.77777777777777" height="73.77777777777777" fill="#ffffff"/><g transform="translate(885.33,221.33) scale(1.8445) rotate(0)"><path d="M10 5L5 0L0 5L5 10L0 15L5 20L10 15L15 20L20 15L15 10L20 5L15 0L10 5Z" fill="#c6cbf3"/></g><g transform="translate(922.22,221.33) scale(1.8445) rotate(0)"><path d="M10 5L5 0L0 5L5 10L0 15L5 20L10 15L15 20L20 15L15 10L20 5L15 0L10 5Z" fill="#ffd724"/></g><g transform="translate(885.33,258.22) scale(1.8445) rotate(0)"><path d="M10 5L5 0L0 5L5 10L0 15L5 20L10 15L15 20L20 15L15 10L20 5L15 0L10 5Z" fill="#ffdd48"/></g><g transform="translate(922.22,258.22) scale(1.8445) rotate(0)"><path d="M10 5L5 0L0 5L5 10L0 15L5 20L10 15L15 20L20 15L15 10L20 5L15 0L10 5Z" fill="#fff3bb"/></g><rect x="959.1111111111111" y="221.33333333333331" width="73.77777777777777" height="73.77777777777777" fill="#ffffff"/><g transform="translate(959.11,221.33) scale(1.8445) rotate(0)"><path d="M10 5L5 0L0 5L5 10L0 15L5 20L10 15L15 20L20 15L15 10L20 5L15 0L10 5Z" fill="#8690e5"/></g><g transform="translate(996,221.33) scale(1.8445) rotate(0)"><path d="M10 5L5 0L0 5L5 10L0 15L5 20L10 15L15 20L20 15L15 10L20 5L15 0L10 5Z" fill="#ffd416"/></g><g transform="translate(959.11,258.22) scale(1.8445) rotate(0)"><path d="M10 5L5 0L0 5L5 10L0 15L5 20L10 15L15 20L20 15L15 10L20 5L15 0L10 5Z" fill="#9099e7"/></g><g transform="translate(996,258.22) scale(1.8445) rotate(0)"><path d="M10 5L5 0L0 5L5 10L0 15L5 20L10 15L15 20L20 15L15 10L20 5L15 0L10 5Z" fill="#eaecfb"/></g><g transform="translate(1032.89,221.33) scale(3.689) rotate(0)"><path d="M10 5L5 0L0 5L5 10L0 15L5 20L10 15L15 20L20 15L15 10L20 5L15 0L10 5Z" fill="#edeffb"/></g><g transform="translate(1106.67,221.33) scale(3.689) rotate(0)"><path d="M10 5L5 0L0 5L5 10L0 15L5 20L10 15L15 20L20 15L15 10L20 5L15 0L10 5Z" fill="#fff6cd"/></g><g transform="translate(1180.44,221.33) scale(3.689) rotate(0)"><path d="M10 5L5 0L0 5L5 10L0 15L5 20L10 15L15 20L20 15L15 10L20 5L15 0L10 5Z" fill="#cfd3f5"/></g><g transform="translate(0,295.11) scale(3.689) rotate(0)"><path d="M10 5L5 0L0 5L5 10L0 15L5 20L10 15L15 20L20 15L15 10L20 5L15 0L10 5Z" fill="#c4c9f2"/></g><g transform="translate(73.78,295.11) scale(3.689) rotate(0)"><path d="M10 5L5 0L0 5L5 10L0 15L5 20L10 15L15 20L20 15L15 10L20 5L15 0L10 5Z" fill="#fffae4"/></g><g transform="translate(147.56,295.11) scale(3.689) rotate(0)"><path d="M10 5L5 0L0 5L5 10L0 15L5 20L10 15L15 20L20 15L15 10L20 5L15 0L10 5Z" fill="#ffea8b"/></g><g transform="translate(221.33,295.11) scale(3.689) rotate(0)"><path d="M10 5L5 0L0 5L5 10L0 15L5 20L10 15L15 20L20 15L15 10L20 5L15 0L10 5Z" fill="#ffd61f"/></g><g transform="translate(295.11,295.11) scale(3.689) rotate(0)"><path d="M10 5L5 0L0 5L5 10L0 15L5 20L10 15L15 20L20 15L15 10L20 5L15 0L10 5Z" fill="#7a85e2"/></g><g transform="translate(368.89,295.11) scale(3.689) rotate(0)"><path d="M10 5L5 0L0 5L5 10L0 15L5 20L10 15L15 20L20 15L15 10L20 5L15 0L10 5Z" fill="#e9ebfa"/></g><rect x="442.66666666666663" y="295.1111111111111" width="73.77777777777777" height="73.77777777777777" fill="#ffffff"/><g transform="translate(442.67,295.11) scale(1.8445) rotate(0)"><path d="M10 5L5 0L0 5L5 10L0 15L5 20L10 15L15 20L20 15L15 10L20 5L15 0L10 5Z" fill="#ffe988"/></g><g transform="translate(479.56,295.11) scale(1.8445) rotate(0)"><path d="M10 5L5 0L0 5L5 10L0 15L5 20L10 15L15 20L20 15L15 10L20 5L15 0L10 5Z" fill="#ffd30e"/></g><g transform="translate(442.67,332) scale(1.8445) rotate(0)"><path d="M10 5L5 0L0 5L5 10L0 15L5 20L10 15L15 20L20 15L15 10L20 5L15 0L10 5Z" fill="#fff2b8"/></g><g transform="translate(479.56,332) scale(1.8445) rotate(0)"><path d="M10 5L5 0L0 5L5 10L0 15L5 20L10 15L15 20L20 15L15 10L20 5L15 0L10 5Z" fill="#c8ccf3"/></g><g transform="translate(516.44,295.11) scale(3.689) rotate(0)"><path d="M10 5L5 0L0 5L5 10L0 15L5 20L10 15L15 20L20 15L15 10L20 5L15 0L10 5Z" fill="#d9dcf7"/></g><g transform="translate(590.22,295.11) scale(3.689) rotate(0)"><path d="M10 5L5 0L0 5L5 10L0 15L5 20L10 15L15 20L20 15L15 10L20 5L15 0L10 5Z" fill="#ffdf54"/></g><rect x="664" y="295.1111111111111" width="73.77777777777777" height="73.77777777777777" fill="#ffffff"/><g transform="translate(664,295.11) scale(1.8445) rotate(0)"><path d="M10 5L5 0L0 5L5 10L0 15L5 20L10 15L15 20L20 15L15 10L20 5L15 0L10 5Z" fill="#fffced"/></g><g transform="translate(700.89,295.11) scale(1.8445) rotate(0)"><path d="M10 5L5 0L0 5L5 10L0 15L5 20L10 15L15 20L20 15L15 10L20 5L15 0L10 5Z" fill="#7580e1"/></g><g transform="translate(664,332) scale(1.8445) rotate(0)"><path d="M10 5L5 0L0 5L5 10L0 15L5 20L10 15L15 20L20 15L15 10L20 5L15 0L10 5Z" fill="#fffae7"/></g><g transform="translate(700.89,332) scale(1.8445) rotate(0)"><path d="M10 5L5 0L0 5L5 10L0 15L5 20L10 15L15 20L20 15L15 10L20 5L15 0L10 5Z" fill="#8e97e6"/></g><g transform="translate(737.78,295.11) scale(3.689) rotate(0)"><path d="M10 5L5 0L0 5L5 10L0 15L5 20L10 15L15 20L20 15L15 10L20 5L15 0L10 5Z" fill="#c4c9f2"/></g><g transform="translate(811.56,295.11) scale(3.689) rotate(0)"><path d="M10 5L5 0L0 5L5 10L0 15L5 20L10 15L15 20L20 15L15 10L20 5L15 0L10 5Z" fill="#f4f5fd"/></g><g transform="translate(885.33,295.11) scale(3.689) rotate(0)"><path d="M10 5L5 0L0 5L5 10L0 15L5 20L10 15L15 20L20 15L15 10L20 5L15 0L10 5Z" fill="#969ee8"/></g><rect x="959.1111111111111" y="295.1111111111111" width="73.77777777777777" height="73.77777777777777" fill="#ffffff"/><g transform="translate(959.11,295.11) scale(1.8445) rotate(0)"><path d="M10 5L5 0L0 5L5 10L0 15L5 20L10 15L15 20L20 15L15 10L20 5L15 0L10 5Z" fill="#e9ebfa"/></g><g transform="translate(996,295.11) scale(1.8445) rotate(0)"><path d="M10 5L5 0L0 5L5 10L0 15L5 20L10 15L15 20L20 15L15 10L20 5L15 0L10 5Z" fill="#ffed9c"/></g><g transform="translate(959.11,332) scale(1.8445) rotate(0)"><path d="M10 5L5 0L0 5L5 10L0 15L5 20L10 15L15 20L20 15L15 10L20 5L15 0L10 5Z" fill="#ffed9f"/></g><g transform="translate(996,332) scale(1.8445) rotate(0)"><path d="M10 5L5 0L0 5L5 10L0 15L5 20L10 15L15 20L20 15L15 10L20 5L15 0L10 5Z" fill="#fffae4"/></g><g transform="translate(1032.89,295.11) scale(3.689) rotate(0)"><path d="M10 5L5 0L0 5L5 10L0 15L5 20L10 15L15 20L20 15L15 10L20 5L15 0L10 5Z" fill="#ffeb94"/></g><g transform="translate(1106.67,295.11) scale(3.689) rotate(0)"><path d="M10 5L5 0L0 5L5 10L0 15L5 20L10 15L15 20L20 15L15 10L20 5L15 0L10 5Z" fill="#fff3bc"/></g><g transform="translate(1180.44,295.11) scale(3.689) rotate(0)"><path d="M10 5L5 0L0 5L5 10L0 15L5 20L10 15L15 20L20 15L15 10L20 5L15 0L10 5Z" fill="#ffe46c"/></g><g transform="translate(0,368.89) scale(3.689) rotate(0)"><path d="M10 5L5 0L0 5L5 10L0 15L5 20L10 15L15 20L20 15L15 10L20 5L15 0L10 5Z" fill="#b9bff0"/></g><g transform="translate(73.78,368.89) scale(3.689) rotate(0)"><path d="M10 5L5 0L0 5L5 10L0 15L5 20L10 15L15 20L20 15L15 10L20 5L15 0L10 5Z" fill="#ffe367"/></g><g transform="translate(147.56,368.89) scale(3.689) rotate(0)"><path d="M10 5L5 0L0 5L5 10L0 15L5 20L10 15L15 20L20 15L15 10L20 5L15 0L10 5Z" fill="#5f6cdc"/></g><rect x="221.33333333333331" y="368.88888888888886" width="73.77777777777777" height="73.77777777777777" fill="#ffffff"/><g transform="translate(221.33,368.89) scale(1.8445) rotate(0)"><path d="M10 5L5 0L0 5L5 10L0 15L5 20L10 15L15 20L20 15L15 10L20 5L15 0L10 5Z" fill="#838de4"/></g><g transform="translate(258.22,368.89) scale(1.8445) rotate(0)"><path d="M10 5L5 0L0 5L5 10L0 15L5 20L10 15L15 20L20 15L15 10L20 5L15 0L10 5Z" fill="#7c87e3"/></g><g transform="translate(221.33,405.78) scale(1.8445) rotate(0)"><path d="M10 5L5 0L0 5L5 10L0 15L5 20L10 15L15 20L20 15L15 10L20 5L15 0L10 5Z" fill="#ffec99"/></g><g transform="translate(258.22,405.78) scale(1.8445) rotate(0)"><path d="M10 5L5 0L0 5L5 10L0 15L5 20L10 15L15 20L20 15L15 10L20 5L15 0L10 5Z" fill="#ffd725"/></g><rect x="295.1111111111111" y="368.88888888888886" width="73.77777777777777" height="73.77777777777777" fill="#ffffff"/><g transform="translate(295.11,368.89) scale(1.8445) rotate(0)"><path d="M10 5L5 0L0 5L5 10L0 15L5 20L10 15L15 20L20 15L15 10L20 5L15 0L10 5Z" fill="#ffd623"/></g><g transform="translate(332,368.89) scale(1.8445) rotate(0)"><path d="M10 5L5 0L0 5L5 10L0 15L5 20L10 15L15 20L20 15L15 10L20 5L15 0L10 5Z" fill="#fffbec"/></g><g transform="translate(295.11,405.78) scale(1.8445) rotate(0)"><path d="M10 5L5 0L0 5L5 10L0 15L5 20L10 15L15 20L20 15L15 10L20 5L15 0L10 5Z" fill="#fff6cd"/></g><g transform="translate(332,405.78) scale(1.8445) rotate(0)"><path d="M10 5L5 0L0 5L5 10L0 15L5 20L10 15L15 20L20 15L15 10L20 5L15 0L10 5Z" fill="#f5f5fd"/></g><rect x="368.88888888888886" y="368.88888888888886" width="73.77777777777777" height="73.77777777777777" fill="#ffffff"/><g transform="translate(368.89,368.89) scale(1.8445) rotate(0)"><path d="M10 5L5 0L0 5L5 10L0 15L5 20L10 15L15 20L20 15L15 10L20 5L15 0L10 5Z" fill="#4958d8"/></g><g transform="translate(405.78,368.89) scale(1.8445) rotate(0)"><path d="M10 5L5 0L0 5L5 10L0 15L5 20L10 15L15 20L20 15L15 10L20 5L15 0L10 5Z" fill="#727ee0"/></g><g transform="translate(368.89,405.78) scale(1.8445) rotate(0)"><path d="M10 5L5 0L0 5L5 10L0 15L5 20L10 15L15 20L20 15L15 10L20 5L15 0L10 5Z" fill="#ffeb93"/></g><g transform="translate(405.78,405.78) scale(1.8445) rotate(0)"><path d="M10 5L5 0L0 5L5 10L0 15L5 20L10 15L15 20L20 15L15 10L20 5L15 0L10 5Z" fill="#cdd1f4"/></g><rect x="442.66666666666663" y="368.88888888888886" width="73.77777777777777" height="73.77777777777777" fill="#ffffff"/><g transform="translate(442.67,368.89) scale(1.8445) rotate(0)"><path d="M10 5L5 0L0 5L5 10L0 15L5 20L10 15L15 20L20 15L15 10L20 5L15 0L10 5Z" fill="#a3abeb"/></g><g transform="translate(479.56,368.89) scale(1.8445) rotate(0)"><path d="M10 5L5 0L0 5L5 10L0 15L5 20L10 15L15 20L20 15L15 10L20 5L15 0L10 5Z" fill="#ffed9c"/></g><g transform="translate(442.67,405.78) scale(1.8445) rotate(0)"><path d="M10 5L5 0L0 5L5 10L0 15L5 20L10 15L15 20L20 15L15 10L20 5L15 0L10 5Z" fill="#bec3f1"/></g><g transform="translate(479.56,405.78) scale(1.8445) rotate(0)"><path d="M10 5L5 0L0 5L5 10L0 15L5 20L10 15L15 20L20 15L15 10L20 5L15 0L10 5Z" fill="#ffeea5"/></g><g transform="translate(516.44,368.89) scale(3.689) rotate(0)"><path d="M10 5L5 0L0 5L5 10L0 15L5 20L10 15L15 20L20 15L15 10L20 5L15 0L10 5Z" fill="#fffae4"/></g><g transform="translate(590.22,368.89) scale(3.689) rotate(0)"><path d="M10 5L5 0L0 5L5 10L0 15L5 20L10 15L15 20L20 15L15 10L20 5L15 0L10 5Z" fill="#4958d8"/></g><g transform="translate(664,368.89) scale(3.689) rotate(0)"><path d="M10 5L5 0L0 5L5 10L0 15L5 20L10 15L15 20L20 15L15 10L20 5L15 0L10 5Z" fill="#919ae7"/></g><g transform="translate(737.78,368.89) scale(3.689) rotate(0)"><path d="M10 5L5 0L0 5L5 10L0 15L5 20L10 15L15 20L20 15L15 10L20 5L15 0L10 5Z" fill="#ffdf52"/></g><g transform="translate(811.56,368.89) scale(3.689) rotate(0)"><path d="M10 5L5 0L0 5L5 10L0 15L5 20L10 15L15 20L20 15L15 10L20 5L15 0L10 5Z" fill="#fff1b3"/></g><g transform="translate(885.33,368.89) scale(3.689) rotate(0)"><path d="M10 5L5 0L0 5L5 10L0 15L5 20L10 15L15 20L20 15L15 10L20 5L15 0L10 5Z" fill="#fff4c3"/></g><g transform="translate(959.11,368.89) scale(3.689) rotate(0)"><path d="M10 5L5 0L0 5L5 10L0 15L5 20L10 15L15 20L20 15L15 10L20 5L15 0L10 5Z" fill="#e8e9fa"/></g><rect x="1032.8888888888887" y="368.88888888888886" width="73.77777777777777" height="73.77777777777777" fill="#ffffff"/><g transform="translate(1032.89,368.89) scale(1.8445) rotate(0)"><path d="M10 5L5 0L0 5L5 10L0 15L5 20L10 15L15 20L20 15L15 10L20 5L15 0L10 5Z" fill="#4352d6"/></g><g transform="translate(1069.78,368.89) scale(1.8445) rotate(0)"><path d="M10 5L5 0L0 5L5 10L0 15L5 20L10 15L15 20L20 15L15 10L20 5L15 0L10 5Z" fill="#d7daf6"/></g><g transform="translate(1032.89,405.78) scale(1.8445) rotate(0)"><path d="M10 5L5 0L0 5L5 10L0 15L5 20L10 15L15 20L20 15L15 10L20 5L15 0L10 5Z" fill="#6a76df"/></g><g transform="translate(1069.78,405.78) scale(1.8445) rotate(0)"><path d="M10 5L5 0L0 5L5 10L0 15L5 20L10 15L15 20L20 15L15 10L20 5L15 0L10 5Z" fill="#aeb5ee"/></g><g transform="translate(1106.67,368.89) scale(3.689) rotate(0)"><path d="M10 5L5 0L0 5L5 10L0 15L5 20L10 15L15 20L20 15L15 10L20 5L15 0L10 5Z" fill="#cfd3f5"/></g><rect x="1180.4444444444443" y="368.88888888888886" width="73.77777777777777" height="73.77777777777777" fill="#ffffff"/><g transform="translate(1180.44,368.89) scale(1.8445) rotate(0)"><path d="M10 5L5 0L0 5L5 10L0 15L5 20L10 15L15 20L20 15L15 10L20 5L15 0L10 5Z" fill="#818be4"/></g><g transform="translate(1217.33,368.89) scale(1.8445) rotate(0)"><path d="M10 5L5 0L0 5L5 10L0 15L5 20L10 15L15 20L20 15L15 10L20 5L15 0L10 5Z" fill="#ffefa6"/></g><g transform="translate(1180.44,405.78) scale(1.8445) rotate(0)"><path d="M10 5L5 0L0 5L5 10L0 15L5 20L10 15L15 20L20 15L15 10L20 5L15 0L10 5Z" fill="#ffeea2"/></g><g transform="translate(1217.33,405.78) scale(1.8445) rotate(0)"><path d="M10 5L5 0L0 5L5 10L0 15L5 20L10 15L15 20L20 15L15 10L20 5L15 0L10 5Z" fill="#dde0f8"/></g><g transform="translate(0,442.67) scale(3.689) rotate(0)"><path d="M10 5L5 0L0 5L5 10L0 15L5 20L10 15L15 20L20 15L15 10L20 5L15 0L10 5Z" fill="#c3c8f2"/></g><g transform="translate(73.78,442.67) scale(3.689) rotate(0)"><path d="M10 5L5 0L0 5L5 10L0 15L5 20L10 15L15 20L20 15L15 10L20 5L15 0L10 5Z" fill="#99a1e9"/></g><rect x="147.55555555555554" y="442.66666666666663" width="73.77777777777777" height="73.77777777777777" fill="#ffffff"/><g transform="translate(147.56,442.67) scale(1.8445) rotate(0)"><path d="M10 5L5 0L0 5L5 10L0 15L5 20L10 15L15 20L20 15L15 10L20 5L15 0L10 5Z" fill="#fff7d4"/></g><g transform="translate(184.44,442.67) scale(1.8445) rotate(0)"><path d="M10 5L5 0L0 5L5 10L0 15L5 20L10 15L15 20L20 15L15 10L20 5L15 0L10 5Z" fill="#3f4fd5"/></g><g transform="translate(147.56,479.56) scale(1.8445) rotate(0)"><path d="M10 5L5 0L0 5L5 10L0 15L5 20L10 15L15 20L20 15L15 10L20 5L15 0L10 5Z" fill="#ffe574"/></g><g transform="translate(184.44,479.56) scale(1.8445) rotate(0)"><path d="M10 5L5 0L0 5L5 10L0 15L5 20L10 15L15 20L20 15L15 10L20 5L15 0L10 5Z" fill="#d1d5f5"/></g><rect x="221.33333333333331" y="442.66666666666663" width="73.77777777777777" height="73.77777777777777" fill="#ffffff"/><g transform="translate(221.33,442.67) scale(1.8445) rotate(0)"><path d="M10 5L5 0L0 5L5 10L0 15L5 20L10 15L15 20L20 15L15 10L20 5L15 0L10 5Z" fill="#ffdb3d"/></g><g transform="translate(258.22,442.67) scale(1.8445) rotate(0)"><path d="M10 5L5 0L0 5L5 10L0 15L5 20L10 15L15 20L20 15L15 10L20 5L15 0L10 5Z" fill="#fffcec"/></g><g transform="translate(221.33,479.56) scale(1.8445) rotate(0)"><path d="M10 5L5 0L0 5L5 10L0 15L5 20L10 15L15 20L20 15L15 10L20 5L15 0L10 5Z" fill="#858fe5"/></g><g transform="translate(258.22,479.56) scale(1.8445) rotate(0)"><path d="M10 5L5 0L0 5L5 10L0 15L5 20L10 15L15 20L20 15L15 10L20 5L15 0L10 5Z" fill="#c4c9f2"/></g><rect x="295.1111111111111" y="442.66666666666663" width="73.77777777777777" height="73.77777777777777" fill="#ffffff"/><g transform="translate(295.11,442.67) scale(1.8445) rotate(0)"><path d="M10 5L5 0L0 5L5 10L0 15L5 20L10 15L15 20L20 15L15 10L20 5L15 0L10 5Z" fill="#ced2f4"/></g><g transform="translate(332,442.67) scale(1.8445) rotate(0)"><path d="M10 5L5 0L0 5L5 10L0 15L5 20L10 15L15 20L20 15L15 10L20 5L15 0L10 5Z" fill="#ffeea3"/></g><g transform="translate(295.11,479.56) scale(1.8445) rotate(0)"><path d="M10 5L5 0L0 5L5 10L0 15L5 20L10 15L15 20L20 15L15 10L20 5L15 0L10 5Z" fill="#fff3bf"/></g><g transform="translate(332,479.56) scale(1.8445) rotate(0)"><path d="M10 5L5 0L0 5L5 10L0 15L5 20L10 15L15 20L20 15L15 10L20 5L15 0L10 5Z" fill="#ffefa7"/></g><g transform="translate(368.89,442.67) scale(3.689) rotate(0)"><path d="M10 5L5 0L0 5L5 10L0 15L5 20L10 15L15 20L20 15L15 10L20 5L15 0L10 5Z" fill="#ffe573"/></g><rect x="442.66666666666663" y="442.66666666666663" width="73.77777777777777" height="73.77777777777777" fill="#ffffff"/><g transform="translate(442.67,442.67) scale(1.8445) rotate(0)"><path d="M10 5L5 0L0 5L5 10L0 15L5 20L10 15L15 20L20 15L15 10L20 5L15 0L10 5Z" fill="#fffbe9"/></g><g transform="translate(479.56,442.67) scale(1.8445) rotate(0)"><path d="M10 5L5 0L0 5L5 10L0 15L5 20L10 15L15 20L20 15L15 10L20 5L15 0L10 5Z" fill="#4656d7"/></g><g transform="translate(442.67,479.56) scale(1.8445) rotate(0)"><path d="M10 5L5 0L0 5L5 10L0 15L5 20L10 15L15 20L20 15L15 10L20 5L15 0L10 5Z" fill="#ffd103"/></g><g transform="translate(479.56,479.56) scale(1.8445) rotate(0)"><path d="M10 5L5 0L0 5L5 10L0 15L5 20L10 15L15 20L20 15L15 10L20 5L15 0L10 5Z" fill="#4554d7"/></g><rect x="516.4444444444443" y="442.66666666666663" width="73.77777777777777" height="73.77777777777777" fill="#ffffff"/><g transform="translate(516.44,442.67) scale(1.8445) rotate(0)"><path d="M10 5L5 0L0 5L5 10L0 15L5 20L10 15L15 20L20 15L15 10L20 5L15 0L10 5Z" fill="#5462da"/></g><g transform="translate(553.33,442.67) scale(1.8445) rotate(0)"><path d="M10 5L5 0L0 5L5 10L0 15L5 20L10 15L15 20L20 15L15 10L20 5L15 0L10 5Z" fill="#fffffe"/></g><g transform="translate(516.44,479.56) scale(1.8445) rotate(0)"><path d="M10 5L5 0L0 5L5 10L0 15L5 20L10 15L15 20L20 15L15 10L20 5L15 0L10 5Z" fill="#5967db"/></g><g transform="translate(553.33,479.56) scale(1.8445) rotate(0)"><path d="M10 5L5 0L0 5L5 10L0 15L5 20L10 15L15 20L20 15L15 10L20 5L15 0L10 5Z" fill="#ffd933"/></g><g transform="translate(590.22,442.67) scale(3.689) rotate(0)"><path d="M10 5L5 0L0 5L5 10L0 15L5 20L10 15L15 20L20 15L15 10L20 5L15 0L10 5Z" fill="#8e97e7"/></g><g transform="translate(664,442.67) scale(3.689) rotate(0)"><path d="M10 5L5 0L0 5L5 10L0 15L5 20L10 15L15 20L20 15L15 10L20 5L15 0L10 5Z" fill="#ffe77a"/></g><g transform="translate(737.78,442.67) scale(3.689) rotate(0)"><path d="M10 5L5 0L0 5L5 10L0 15L5 20L10 15L15 20L20 15L15 10L20 5L15 0L10 5Z" fill="#ffd208"/></g><rect x="811.5555555555554" y="442.66666666666663" width="73.77777777777777" height="73.77777777777777" fill="#ffffff"/><g transform="translate(811.56,442.67) scale(1.8445) rotate(0)"><path d="M10 5L5 0L0 5L5 10L0 15L5 20L10 15L15 20L20 15L15 10L20 5L15 0L10 5Z" fill="#98a0e9"/></g><g transform="translate(848.44,442.67) scale(1.8445) rotate(0)"><path d="M10 5L5 0L0 5L5 10L0 15L5 20L10 15L15 20L20 15L15 10L20 5L15 0L10 5Z" fill="#fff0af"/></g><g transform="translate(811.56,479.56) scale(1.8445) rotate(0)"><path d="M10 5L5 0L0 5L5 10L0 15L5 20L10 15L15 20L20 15L15 10L20 5L15 0L10 5Z" fill="#9da5ea"/></g><g transform="translate(848.44,479.56) scale(1.8445) rotate(0)"><path d="M10 5L5 0L0 5L5 10L0 15L5 20L10 15L15 20L20 15L15 10L20 5L15 0L10 5Z" fill="#b7bdef"/></g><g transform="translate(885.33,442.67) scale(3.689) rotate(0)"><path d="M10 5L5 0L0 5L5 10L0 15L5 20L10 15L15 20L20 15L15 10L20 5L15 0L10 5Z" fill="#c9cdf3"/></g><g transform="translate(959.11,442.67) scale(3.689) rotate(0)"><path d="M10 5L5 0L0 5L5 10L0 15L5 20L10 15L15 20L20 15L15 10L20 5L15 0L10 5Z" fill="#ffe15d"/></g><g transform="translate(1032.89,442.67) scale(3.689) rotate(0)"><path d="M10 5L5 0L0 5L5 10L0 15L5 20L10 15L15 20L20 15L15 10L20 5L15 0L10 5Z" fill="#d2d5f5"/></g><g transform="translate(1106.67,442.67) scale(3.689) rotate(0)"><path d="M10 5L5 0L0 5L5 10L0 15L5 20L10 15L15 20L20 15L15 10L20 5L15 0L10 5Z" fill="#ffeea4"/></g><g transform="translate(1180.44,442.67) scale(3.689) rotate(0)"><path d="M10 5L5 0L0 5L5 10L0 15L5 20L10 15L15 20L20 15L15 10L20 5L15 0L10 5Z" fill="#ffd001"/></g><g transform="translate(0,516.44) scale(3.689) rotate(0)"><path d="M10 5L5 0L0 5L5 10L0 15L5 20L10 15L15 20L20 15L15 10L20 5L15 0L10 5Z" fill="#c5c9f2"/></g><rect x="73.77777777777777" y="516.4444444444443" width="73.77777777777777" height="73.77777777777777" fill="#ffffff"/><g transform="translate(73.78,516.44) scale(1.8445) rotate(0)"><path d="M10 5L5 0L0 5L5 10L0 15L5 20L10 15L15 20L20 15L15 10L20 5L15 0L10 5Z" fill="#aeb4ed"/></g><g transform="translate(110.67,516.44) scale(1.8445) rotate(0)"><path d="M10 5L5 0L0 5L5 10L0 15L5 20L10 15L15 20L20 15L15 10L20 5L15 0L10 5Z" fill="#d5d8f6"/></g><g transform="translate(73.78,553.33) scale(1.8445) rotate(0)"><path d="M10 5L5 0L0 5L5 10L0 15L5 20L10 15L15 20L20 15L15 10L20 5L15 0L10 5Z" fill="#ffeb95"/></g><g transform="translate(110.67,553.33) scale(1.8445) rotate(0)"><path d="M10 5L5 0L0 5L5 10L0 15L5 20L10 15L15 20L20 15L15 10L20 5L15 0L10 5Z" fill="#ffd82d"/></g><rect x="147.55555555555554" y="516.4444444444443" width="73.77777777777777" height="73.77777777777777" fill="#ffffff"/><g transform="translate(147.56,516.44) scale(1.8445) rotate(0)"><path d="M10 5L5 0L0 5L5 10L0 15L5 20L10 15L15 20L20 15L15 10L20 5L15 0L10 5Z" fill="#fff5c6"/></g><g transform="translate(184.44,516.44) scale(1.8445) rotate(0)"><path d="M10 5L5 0L0 5L5 10L0 15L5 20L10 15L15 20L20 15L15 10L20 5L15 0L10 5Z" fill="#dee0f8"/></g><g transform="translate(147.56,553.33) scale(1.8445) rotate(0)"><path d="M10 5L5 0L0 5L5 10L0 15L5 20L10 15L15 20L20 15L15 10L20 5L15 0L10 5Z" fill="#727ee1"/></g><g transform="translate(184.44,553.33) scale(1.8445) rotate(0)"><path d="M10 5L5 0L0 5L5 10L0 15L5 20L10 15L15 20L20 15L15 10L20 5L15 0L10 5Z" fill="#ffd82b"/></g><g transform="translate(221.33,516.44) scale(3.689) rotate(0)"><path d="M10 5L5 0L0 5L5 10L0 15L5 20L10 15L15 20L20 15L15 10L20 5L15 0L10 5Z" fill="#fffefc"/></g><rect x="295.1111111111111" y="516.4444444444443" width="73.77777777777777" height="73.77777777777777" fill="#ffffff"/><g transform="translate(295.11,516.44) scale(1.8445) rotate(0)"><path d="M10 5L5 0L0 5L5 10L0 15L5 20L10 15L15 20L20 15L15 10L20 5L15 0L10 5Z" fill="#fff8d9"/></g><g transform="translate(332,516.44) scale(1.8445) rotate(0)"><path d="M10 5L5 0L0 5L5 10L0 15L5 20L10 15L15 20L20 15L15 10L20 5L15 0L10 5Z" fill="#d1d5f5"/></g><g transform="translate(295.11,553.33) scale(1.8445) rotate(0)"><path d="M10 5L5 0L0 5L5 10L0 15L5 20L10 15L15 20L20 15L15 10L20 5L15 0L10 5Z" fill="#cdd1f4"/></g><g transform="translate(332,553.33) scale(1.8445) rotate(0)"><path d="M10 5L5 0L0 5L5 10L0 15L5 20L10 15L15 20L20 15L15 10L20 5L15 0L10 5Z" fill="#8f98e7"/></g><g transform="translate(368.89,516.44) scale(3.689) rotate(0)"><path d="M10 5L5 0L0 5L5 10L0 15L5 20L10 15L15 20L20 15L15 10L20 5L15 0L10 5Z" fill="#fff3bd"/></g><rect x="442.66666666666663" y="516.4444444444443" width="73.77777777777777" height="73.77777777777777" fill="#ffffff"/><g transform="translate(442.67,516.44) scale(1.8445) rotate(0)"><path d="M10 5L5 0L0 5L5 10L0 15L5 20L10 15L15 20L20 15L15 10L20 5L15 0L10 5Z" fill="#eaebfa"/></g><g transform="translate(479.56,516.44) scale(1.8445) rotate(0)"><path d="M10 5L5 0L0 5L5 10L0 15L5 20L10 15L15 20L20 15L15 10L20 5L15 0L10 5Z" fill="#ffe264"/></g><g transform="translate(442.67,553.33) scale(1.8445) rotate(0)"><path d="M10 5L5 0L0 5L5 10L0 15L5 20L10 15L15 20L20 15L15 10L20 5L15 0L10 5Z" fill="#7e89e3"/></g><g transform="translate(479.56,553.33) scale(1.8445) rotate(0)"><path d="M10 5L5 0L0 5L5 10L0 15L5 20L10 15L15 20L20 15L15 10L20 5L15 0L10 5Z" fill="#ffea8e"/></g><g transform="translate(516.44,516.44) scale(3.689) rotate(0)"><path d="M10 5L5 0L0 5L5 10L0 15L5 20L10 15L15 20L20 15L15 10L20 5L15 0L10 5Z" fill="#d5d9f6"/></g><g transform="translate(590.22,516.44) scale(3.689) rotate(0)"><path d="M10 5L5 0L0 5L5 10L0 15L5 20L10 15L15 20L20 15L15 10L20 5L15 0L10 5Z" fill="#ffd51a"/></g><rect x="664" y="516.4444444444443" width="73.77777777777777" height="73.77777777777777" fill="#ffffff"/><g transform="translate(664,516.44) scale(1.8445) rotate(0)"><path d="M10 5L5 0L0 5L5 10L0 15L5 20L10 15L15 20L20 15L15 10L20 5L15 0L10 5Z" fill="#fff6d0"/></g><g transform="translate(700.89,516.44) scale(1.8445) rotate(0)"><path d="M10 5L5 0L0 5L5 10L0 15L5 20L10 15L15 20L20 15L15 10L20 5L15 0L10 5Z" fill="#aeb5ed"/></g><g transform="translate(664,553.33) scale(1.8445) rotate(0)"><path d="M10 5L5 0L0 5L5 10L0 15L5 20L10 15L15 20L20 15L15 10L20 5L15 0L10 5Z" fill="#939ce8"/></g><g transform="translate(700.89,553.33) scale(1.8445) rotate(0)"><path d="M10 5L5 0L0 5L5 10L0 15L5 20L10 15L15 20L20 15L15 10L20 5L15 0L10 5Z" fill="#fff7d2"/></g><g transform="translate(737.78,516.44) scale(3.689) rotate(0)"><path d="M10 5L5 0L0 5L5 10L0 15L5 20L10 15L15 20L20 15L15 10L20 5L15 0L10 5Z" fill="#818be4"/></g><rect x="811.5555555555554" y="516.4444444444443" width="73.77777777777777" height="73.77777777777777" fill="#ffffff"/><g transform="translate(811.56,516.44) scale(1.8445) rotate(0)"><path d="M10 5L5 0L0 5L5 10L0 15L5 20L10 15L15 20L20 15L15 10L20 5L15 0L10 5Z" fill="#ffeb94"/></g><g transform="translate(848.44,516.44) scale(1.8445) rotate(0)"><path d="M10 5L5 0L0 5L5 10L0 15L5 20L10 15L15 20L20 15L15 10L20 5L15 0L10 5Z" fill="#ffd414"/></g><g transform="translate(811.56,553.33) scale(1.8445) rotate(0)"><path d="M10 5L5 0L0 5L5 10L0 15L5 20L10 15L15 20L20 15L15 10L20 5L15 0L10 5Z" fill="#ffdf50"/></g><g transform="translate(848.44,553.33) scale(1.8445) rotate(0)"><path d="M10 5L5 0L0 5L5 10L0 15L5 20L10 15L15 20L20 15L15 10L20 5L15 0L10 5Z" fill="#fff8d8"/></g><g transform="translate(885.33,516.44) scale(3.689) rotate(0)"><path d="M10 5L5 0L0 5L5 10L0 15L5 20L10 15L15 20L20 15L15 10L20 5L15 0L10 5Z" fill="#e2e4f9"/></g><rect x="959.1111111111111" y="516.4444444444443" width="73.77777777777777" height="73.77777777777777" fill="#ffffff"/><g transform="translate(959.11,516.44) scale(1.8445) rotate(0)"><path d="M10 5L5 0L0 5L5 10L0 15L5 20L10 15L15 20L20 15L15 10L20 5L15 0L10 5Z" fill="#fff5c9"/></g><g transform="translate(996,516.44) scale(1.8445) rotate(0)"><path d="M10 5L5 0L0 5L5 10L0 15L5 20L10 15L15 20L20 15L15 10L20 5L15 0L10 5Z" fill="#ffda34"/></g><g transform="translate(959.11,553.33) scale(1.8445) rotate(0)"><path d="M10 5L5 0L0 5L5 10L0 15L5 20L10 15L15 20L20 15L15 10L20 5L15 0L10 5Z" fill="#bfc4f1"/></g><g transform="translate(996,553.33) scale(1.8445) rotate(0)"><path d="M10 5L5 0L0 5L5 10L0 15L5 20L10 15L15 20L20 15L15 10L20 5L15 0L10 5Z" fill="#ffe885"/></g><rect x="1032.8888888888887" y="516.4444444444443" width="73.77777777777777" height="73.77777777777777" fill="#ffffff"/><g transform="translate(1032.89,516.44) scale(1.8445) rotate(0)"><path d="M10 5L5 0L0 5L5 10L0 15L5 20L10 15L15 20L20 15L15 10L20 5L15 0L10 5Z" fill="#ffe262"/></g><g transform="translate(1069.78,516.44) scale(1.8445) rotate(0)"><path d="M10 5L5 0L0 5L5 10L0 15L5 20L10 15L15 20L20 15L15 10L20 5L15 0L10 5Z" fill="#9ea6ea"/></g><g transform="translate(1032.89,553.33) scale(1.8445) rotate(0)"><path d="M10 5L5 0L0 5L5 10L0 15L5 20L10 15L15 20L20 15L15 10L20 5L15 0L10 5Z" fill="#808ae3"/></g><g transform="translate(1069.78,553.33) scale(1.8445) rotate(0)"><path d="M10 5L5 0L0 5L5 10L0 15L5 20L10 15L15 20L20 15L15 10L20 5L15 0L10 5Z" fill="#eeeffb"/></g><g transform="translate(1106.67,516.44) scale(3.689) rotate(0)"><path d="M10 5L5 0L0 5L5 10L0 15L5 20L10 15L15 20L20 15L15 10L20 5L15 0L10 5Z" fill="#fff4c5"/></g><g transform="translate(1180.44,516.44) scale(3.689) rotate(0)"><path d="M10 5L5 0L0 5L5 10L0 15L5 20L10 15L15 20L20 15L15 10L20 5L15 0L10 5Z" fill="#959ee8"/></g><g transform="translate(0,590.22) scale(3.689) rotate(0)"><path d="M10 5L5 0L0 5L5 10L0 15L5 20L10 15L15 20L20 15L15 10L20 5L15 0L10 5Z" fill="#4151d6"/></g><g transform="translate(73.78,590.22) scale(3.689) rotate(0)"><path d="M10 5L5 0L0 5L5 10L0 15L5 20L10 15L15 20L20 15L15 10L20 5L15 0L10 5Z" fill="#a4abeb"/></g><rect x="147.55555555555554" y="590.2222222222222" width="73.77777777777777" height="73.77777777777777" fill="#ffffff"/><g transform="translate(147.56,590.22) scale(1.8445) rotate(0)"><path d="M10 5L5 0L0 5L5 10L0 15L5 20L10 15L15 20L20 15L15 10L20 5L15 0L10 5Z" fill="#ffd621"/></g><g transform="translate(184.44,590.22) scale(1.8445) rotate(0)"><path d="M10 5L5 0L0 5L5 10L0 15L5 20L10 15L15 20L20 15L15 10L20 5L15 0L10 5Z" fill="#969fe8"/></g><g transform="translate(147.56,627.11) scale(1.8445) rotate(0)"><path d="M10 5L5 0L0 5L5 10L0 15L5 20L10 15L15 20L20 15L15 10L20 5L15 0L10 5Z" fill="#a3aaeb"/></g><g transform="translate(184.44,627.11) scale(1.8445) rotate(0)"><path d="M10 5L5 0L0 5L5 10L0 15L5 20L10 15L15 20L20 15L15 10L20 5L15 0L10 5Z" fill="#717de0"/></g><g transform="translate(221.33,590.22) scale(3.689) rotate(0)"><path d="M10 5L5 0L0 5L5 10L0 15L5 20L10 15L15 20L20 15L15 10L20 5L15 0L10 5Z" fill="#e2e4f9"/></g><g transform="translate(295.11,590.22) scale(3.689) rotate(0)"><path d="M10 5L5 0L0 5L5 10L0 15L5 20L10 15L15 20L20 15L15 10L20 5L15 0L10 5Z" fill="#daddf7"/></g><rect x="368.88888888888886" y="590.2222222222222" width="73.77777777777777" height="73.77777777777777" fill="#ffffff"/><g transform="translate(368.89,590.22) scale(1.8445) rotate(0)"><path d="M10 5L5 0L0 5L5 10L0 15L5 20L10 15L15 20L20 15L15 10L20 5L15 0L10 5Z" fill="#bfc5f1"/></g><g transform="translate(405.78,590.22) scale(1.8445) rotate(0)"><path d="M10 5L5 0L0 5L5 10L0 15L5 20L10 15L15 20L20 15L15 10L20 5L15 0L10 5Z" fill="#5967db"/></g><g transform="translate(368.89,627.11) scale(1.8445) rotate(0)"><path d="M10 5L5 0L0 5L5 10L0 15L5 20L10 15L15 20L20 15L15 10L20 5L15 0L10 5Z" fill="#b2b8ee"/></g><g transform="translate(405.78,627.11) scale(1.8445) rotate(0)"><path d="M10 5L5 0L0 5L5 10L0 15L5 20L10 15L15 20L20 15L15 10L20 5L15 0L10 5Z" fill="#727de0"/></g><g transform="translate(442.67,590.22) scale(3.689) rotate(0)"><path d="M10 5L5 0L0 5L5 10L0 15L5 20L10 15L15 20L20 15L15 10L20 5L15 0L10 5Z" fill="#7883e2"/></g><g transform="translate(516.44,590.22) scale(3.689) rotate(0)"><path d="M10 5L5 0L0 5L5 10L0 15L5 20L10 15L15 20L20 15L15 10L20 5L15 0L10 5Z" fill="#8c95e6"/></g><g transform="translate(590.22,590.22) scale(3.689) rotate(0)"><path d="M10 5L5 0L0 5L5 10L0 15L5 20L10 15L15 20L20 15L15 10L20 5L15 0L10 5Z" fill="#e6e8fa"/></g><g transform="translate(664,590.22) scale(3.689) rotate(0)"><path d="M10 5L5 0L0 5L5 10L0 15L5 20L10 15L15 20L20 15L15 10L20 5L15 0L10 5Z" fill="#ffd82b"/></g><g transform="translate(737.78,590.22) scale(3.689) rotate(0)"><path d="M10 5L5 0L0 5L5 10L0 15L5 20L10 15L15 20L20 15L15 10L20 5L15 0L10 5Z" fill="#aeb5ee"/></g><g transform="translate(811.56,590.22) scale(3.689) rotate(0)"><path d="M10 5L5 0L0 5L5 10L0 15L5 20L10 15L15 20L20 15L15 10L20 5L15 0L10 5Z" fill="#fffbea"/></g><g transform="translate(885.33,590.22) scale(3.689) rotate(0)"><path d="M10 5L5 0L0 5L5 10L0 15L5 20L10 15L15 20L20 15L15 10L20 5L15 0L10 5Z" fill="#fffae5"/></g><rect x="959.1111111111111" y="590.2222222222222" width="73.77777777777777" height="73.77777777777777" fill="#ffffff"/><g transform="translate(959.11,590.22) scale(1.8445) rotate(0)"><path d="M10 5L5 0L0 5L5 10L0 15L5 20L10 15L15 20L20 15L15 10L20 5L15 0L10 5Z" fill="#fff1b4"/></g><g transform="translate(996,590.22) scale(1.8445) rotate(0)"><path d="M10 5L5 0L0 5L5 10L0 15L5 20L10 15L15 20L20 15L15 10L20 5L15 0L10 5Z" fill="#ffdc40"/></g><g transform="translate(959.11,627.11) scale(1.8445) rotate(0)"><path d="M10 5L5 0L0 5L5 10L0 15L5 20L10 15L15 20L20 15L15 10L20 5L15 0L10 5Z" fill="#cfd3f5"/></g><g transform="translate(996,627.11) scale(1.8445) rotate(0)"><path d="M10 5L5 0L0 5L5 10L0 15L5 20L10 15L15 20L20 15L15 10L20 5L15 0L10 5Z" fill="#ffd414"/></g><g transform="translate(1032.89,590.22) scale(3.689) rotate(0)"><path d="M10 5L5 0L0 5L5 10L0 15L5 20L10 15L15 20L20 15L15 10L20 5L15 0L10 5Z" fill="#c9cdf3"/></g><g transform="translate(1106.67,590.22) scale(3.689) rotate(0)"><path d="M10 5L5 0L0 5L5 10L0 15L5 20L10 15L15 20L20 15L15 10L20 5L15 0L10 5Z" fill="#ffefa6"/></g><g transform="translate(1180.44,590.22) scale(3.689) rotate(0)"><path d="M10 5L5 0L0 5L5 10L0 15L5 20L10 15L15 20L20 15L15 10L20 5L15 0L10 5Z" fill="#ffe77e"/></g></g></svg>