<?xml version="1.0" standalone="no"?><svg xmlns:xlink="http://www.w3.org/1999/xlink" xmlns="http://www.w3.org/2000/svg" viewBox="0 0 1000 562.4973527044771" preserveAspectRatio="xMaxYMax slice"><g transform="scale(0.8471345673260197)"><rect x="0" y="0" width="1254.2222222222222" height="664" fill="#19172d"/><g transform="translate(0,0) scale(3.689) rotate(0)"><path d="M10 5L5 0L0 5L5 10L0 15L5 20L10 15L15 20L20 15L15 10L20 5L15 0L10 5Z" fill="#25212b"/></g><g transform="translate(73.78,0) scale(3.689) rotate(0)"><path d="M10 5L5 0L0 5L5 10L0 15L5 20L10 15L15 20L20 15L15 10L20 5L15 0L10 5Z" fill="#3541af"/></g><g transform="translate(147.56,0) scale(3.689) rotate(0)"><path d="M10 5L5 0L0 5L5 10L0 15L5 20L10 15L15 20L20 15L15 10L20 5L15 0L10 5Z" fill="#efc303"/></g><g transform="translate(221.33,0) scale(3.689) rotate(0)"><path d="M10 5L5 0L0 5L5 10L0 15L5 20L10 15L15 20L20 15L15 10L20 5L15 0L10 5Z" fill="#1e1e44"/></g><g transform="translate(295.11,0) scale(3.689) rotate(0)"><path d="M10 5L5 0L0 5L5 10L0 15L5 20L10 15L15 20L20 15L15 10L20 5L15 0L10 5Z" fill="#9b7f14"/></g><rect x="368.88888888888886" y="0" width="73.77777777777777" height="73.77777777777777" fill="#19172d"/><g transform="translate(368.89,0) scale(1.8445) rotate(0)"><path d="M10 5L5 0L0 5L5 10L0 15L5 20L10 15L15 20L20 15L15 10L20 5L15 0L10 5Z" fill="#f0c403"/></g><g transform="translate(405.78,0) scale(1.8445) rotate(0)"><path d="M10 5L5 0L0 5L5 10L0 15L5 20L10 15L15 20L20 15L15 10L20 5L15 0L10 5Z" fill="#1a1831"/></g><g transform="translate(368.89,36.89) scale(1.8445) rotate(0)"><path d="M10 5L5 0L0 5L5 10L0 15L5 20L10 15L15 20L20 15L15 10L20 5L15 0L10 5Z" fill="#23255a"/></g><g transform="translate(405.78,36.89) scale(1.8445) rotate(0)"><path d="M10 5L5 0L0 5L5 10L0 15L5 20L10 15L15 20L20 15L15 10L20 5L15 0L10 5Z" fill="#3c4cd1"/></g><g transform="translate(442.67,0) scale(3.689) rotate(0)"><path d="M10 5L5 0L0 5L5 10L0 15L5 20L10 15L15 20L20 15L15 10L20 5L15 0L10 5Z" fill="#323ca0"/></g><rect x="516.4444444444443" y="0" width="73.77777777777777" height="73.77777777777777" fill="#19172d"/><g transform="translate(516.44,0) scale(1.8445) rotate(0)"><path d="M10 5L5 0L0 5L5 10L0 15L5 20L10 15L15 20L20 15L15 10L20 5L15 0L10 5Z" fill="#b7960e"/></g><g transform="translate(553.33,0) scale(1.8445) rotate(0)"><path d="M10 5L5 0L0 5L5 10L0 15L5 20L10 15L15 20L20 15L15 10L20 5L15 0L10 5Z" fill="#4a3e23"/></g><g transform="translate(516.44,36.89) scale(1.8445) rotate(0)"><path d="M10 5L5 0L0 5L5 10L0 15L5 20L10 15L15 20L20 15L15 10L20 5L15 0L10 5Z" fill="#19182f"/></g><g transform="translate(553.33,36.89) scale(1.8445) rotate(0)"><path d="M10 5L5 0L0 5L5 10L0 15L5 20L10 15L15 20L20 15L15 10L20 5L15 0L10 5Z" fill="#1c1b39"/></g><g transform="translate(590.22,0) scale(3.689) rotate(0)"><path d="M10 5L5 0L0 5L5 10L0 15L5 20L10 15L15 20L20 15L15 10L20 5L15 0L10 5Z" fill="#f4c702"/></g><g transform="translate(664,0) scale(3.689) rotate(0)"><path d="M10 5L5 0L0 5L5 10L0 15L5 20L10 15L15 20L20 15L15 10L20 5L15 0L10 5Z" fill="#967b15"/></g><g transform="translate(737.78,0) scale(3.689) rotate(0)"><path d="M10 5L5 0L0 5L5 10L0 15L5 20L10 15L15 20L20 15L15 10L20 5L15 0L10 5Z" fill="#1b1a38"/></g><g transform="translate(811.56,0) scale(3.689) rotate(0)"><path d="M10 5L5 0L0 5L5 10L0 15L5 20L10 15L15 20L20 15L15 10L20 5L15 0L10 5Z" fill="#262b6b"/></g><g transform="translate(885.33,0) scale(3.689) rotate(0)"><path d="M10 5L5 0L0 5L5 10L0 15L5 20L10 15L15 20L20 15L15 10L20 5L15 0L10 5Z" fill="#292f77"/></g><rect x="959.1111111111111" y="0" width="73.77777777777777" height="73.77777777777777" fill="#19172d"/><g transform="translate(959.11,0) scale(1.8445) rotate(0)"><path d="M10 5L5 0L0 5L5 10L0 15L5 20L10 15L15 20L20 15L15 10L20 5L15 0L10 5Z" fill="#5f4f1f"/></g><g transform="translate(996,0) scale(1.8445) rotate(0)"><path d="M10 5L5 0L0 5L5 10L0 15L5 20L10 15L15 20L20 15L15 10L20 5L15 0L10 5Z" fill="#e9be04"/></g><g transform="translate(959.11,36.89) scale(1.8445) rotate(0)"><path d="M10 5L5 0L0 5L5 10L0 15L5 20L10 15L15 20L20 15L15 10L20 5L15 0L10 5Z" fill="#3846c0"/></g><g transform="translate(996,36.89) scale(1.8445) rotate(0)"><path d="M10 5L5 0L0 5L5 10L0 15L5 20L10 15L15 20L20 15L15 10L20 5L15 0L10 5Z" fill="#19172e"/></g><g transform="translate(1032.89,0) scale(3.689) rotate(0)"><path d="M10 5L5 0L0 5L5 10L0 15L5 20L10 15L15 20L20 15L15 10L20 5L15 0L10 5Z" fill="#303a99"/></g><g transform="translate(1106.67,0) scale(3.689) rotate(0)"><path d="M10 5L5 0L0 5L5 10L0 15L5 20L10 15L15 20L20 15L15 10L20 5L15 0L10 5Z" fill="#1c192c"/></g><g transform="translate(1180.44,0) scale(3.689) rotate(0)"><path d="M10 5L5 0L0 5L5 10L0 15L5 20L10 15L15 20L20 15L15 10L20 5L15 0L10 5Z" fill="#be9c0d"/></g><g transform="translate(0,73.78) scale(3.689) rotate(0)"><path d="M10 5L5 0L0 5L5 10L0 15L5 20L10 15L15 20L20 15L15 10L20 5L15 0L10 5Z" fill="#1c1b3a"/></g><g transform="translate(73.78,73.78) scale(3.689) rotate(0)"><path d="M10 5L5 0L0 5L5 10L0 15L5 20L10 15L15 20L20 15L15 10L20 5L15 0L10 5Z" fill="#3541ae"/></g><g transform="translate(147.56,73.78) scale(3.689) rotate(0)"><path d="M10 5L5 0L0 5L5 10L0 15L5 20L10 15L15 20L20 15L15 10L20 5L15 0L10 5Z" fill="#3b49ca"/></g><rect x="221.33333333333331" y="73.77777777777777" width="73.77777777777777" height="73.77777777777777" fill="#19172d"/><g transform="translate(221.33,73.78) scale(1.8445) rotate(0)"><path d="M10 5L5 0L0 5L5 10L0 15L5 20L10 15L15 20L20 15L15 10L20 5L15 0L10 5Z" fill="#2d358a"/></g><g transform="translate(258.22,73.78) scale(1.8445) rotate(0)"><path d="M10 5L5 0L0 5L5 10L0 15L5 20L10 15L15 20L20 15L15 10L20 5L15 0L10 5Z" fill="#997e14"/></g><g transform="translate(221.33,110.67) scale(1.8445) rotate(0)"><path d="M10 5L5 0L0 5L5 10L0 15L5 20L10 15L15 20L20 15L15 10L20 5L15 0L10 5Z" fill="#333da4"/></g><g transform="translate(258.22,110.67) scale(1.8445) rotate(0)"><path d="M10 5L5 0L0 5L5 10L0 15L5 20L10 15L15 20L20 15L15 10L20 5L15 0L10 5Z" fill="#987d14"/></g><rect x="295.1111111111111" y="73.77777777777777" width="73.77777777777777" height="73.77777777777777" fill="#19172d"/><g transform="translate(295.11,73.78) scale(1.8445) rotate(0)"><path d="M10 5L5 0L0 5L5 10L0 15L5 20L10 15L15 20L20 15L15 10L20 5L15 0L10 5Z" fill="#3846bf"/></g><g transform="translate(332,73.78) scale(1.8445) rotate(0)"><path d="M10 5L5 0L0 5L5 10L0 15L5 20L10 15L15 20L20 15L15 10L20 5L15 0L10 5Z" fill="#2e368d"/></g><g transform="translate(295.11,110.67) scale(1.8445) rotate(0)"><path d="M10 5L5 0L0 5L5 10L0 15L5 20L10 15L15 20L20 15L15 10L20 5L15 0L10 5Z" fill="#efc303"/></g><g transform="translate(332,110.67) scale(1.8445) rotate(0)"><path d="M10 5L5 0L0 5L5 10L0 15L5 20L10 15L15 20L20 15L15 10L20 5L15 0L10 5Z" fill="#3f3625"/></g><g transform="translate(368.89,73.78) scale(3.689) rotate(0)"><path d="M10 5L5 0L0 5L5 10L0 15L5 20L10 15L15 20L20 15L15 10L20 5L15 0L10 5Z" fill="#977c14"/></g><g transform="translate(442.67,73.78) scale(3.689) rotate(0)"><path d="M10 5L5 0L0 5L5 10L0 15L5 20L10 15L15 20L20 15L15 10L20 5L15 0L10 5Z" fill="#3a48c5"/></g><g transform="translate(516.44,73.78) scale(3.689) rotate(0)"><path d="M10 5L5 0L0 5L5 10L0 15L5 20L10 15L15 20L20 15L15 10L20 5L15 0L10 5Z" fill="#554721"/></g><g transform="translate(590.22,73.78) scale(3.689) rotate(0)"><path d="M10 5L5 0L0 5L5 10L0 15L5 20L10 15L15 20L20 15L15 10L20 5L15 0L10 5Z" fill="#3a48c7"/></g><g transform="translate(664,73.78) scale(3.689) rotate(0)"><path d="M10 5L5 0L0 5L5 10L0 15L5 20L10 15L15 20L20 15L15 10L20 5L15 0L10 5Z" fill="#3b3226"/></g><g transform="translate(737.78,73.78) scale(3.689) rotate(0)"><path d="M10 5L5 0L0 5L5 10L0 15L5 20L10 15L15 20L20 15L15 10L20 5L15 0L10 5Z" fill="#c4a00c"/></g><g transform="translate(811.56,73.78) scale(3.689) rotate(0)"><path d="M10 5L5 0L0 5L5 10L0 15L5 20L10 15L15 20L20 15L15 10L20 5L15 0L10 5Z" fill="#3c3326"/></g><g transform="translate(885.33,73.78) scale(3.689) rotate(0)"><path d="M10 5L5 0L0 5L5 10L0 15L5 20L10 15L15 20L20 15L15 10L20 5L15 0L10 5Z" fill="#3947c3"/></g><g transform="translate(959.11,73.78) scale(3.689) rotate(0)"><path d="M10 5L5 0L0 5L5 10L0 15L5 20L10 15L15 20L20 15L15 10L20 5L15 0L10 5Z" fill="#252a67"/></g><rect x="1032.8888888888887" y="73.77777777777777" width="73.77777777777777" height="73.77777777777777" fill="#19172d"/><g transform="translate(1032.89,73.78) scale(1.8445) rotate(0)"><path d="M10 5L5 0L0 5L5 10L0 15L5 20L10 15L15 20L20 15L15 10L20 5L15 0L10 5Z" fill="#1a1830"/></g><g transform="translate(1069.78,73.78) scale(1.8445) rotate(0)"><path d="M10 5L5 0L0 5L5 10L0 15L5 20L10 15L15 20L20 15L15 10L20 5L15 0L10 5Z" fill="#79641a"/></g><g transform="translate(1032.89,110.67) scale(1.8445) rotate(0)"><path d="M10 5L5 0L0 5L5 10L0 15L5 20L10 15L15 20L20 15L15 10L20 5L15 0L10 5Z" fill="#b2920f"/></g><g transform="translate(1069.78,110.67) scale(1.8445) rotate(0)"><path d="M10 5L5 0L0 5L5 10L0 15L5 20L10 15L15 20L20 15L15 10L20 5L15 0L10 5Z" fill="#e3ba05"/></g><rect x="1106.6666666666665" y="73.77777777777777" width="73.77777777777777" height="73.77777777777777" fill="#19172d"/><g transform="translate(1106.67,73.78) scale(1.8445) rotate(0)"><path d="M10 5L5 0L0 5L5 10L0 15L5 20L10 15L15 20L20 15L15 10L20 5L15 0L10 5Z" fill="#9e8213"/></g><g transform="translate(1143.56,73.78) scale(1.8445) rotate(0)"><path d="M10 5L5 0L0 5L5 10L0 15L5 20L10 15L15 20L20 15L15 10L20 5L15 0L10 5Z" fill="#303a9a"/></g><g transform="translate(1106.67,110.67) scale(1.8445) rotate(0)"><path d="M10 5L5 0L0 5L5 10L0 15L5 20L10 15L15 20L20 15L15 10L20 5L15 0L10 5Z" fill="#887017"/></g><g transform="translate(1143.56,110.67) scale(1.8445) rotate(0)"><path d="M10 5L5 0L0 5L5 10L0 15L5 20L10 15L15 20L20 15L15 10L20 5L15 0L10 5Z" fill="#6d5a1d"/></g><rect x="1180.4444444444443" y="73.77777777777777" width="73.77777777777777" height="73.77777777777777" fill="#19172d"/><g transform="translate(1180.44,73.78) scale(1.8445) rotate(0)"><path d="M10 5L5 0L0 5L5 10L0 15L5 20L10 15L15 20L20 15L15 10L20 5L15 0L10 5Z" fill="#bc9a0d"/></g><g transform="translate(1217.33,73.78) scale(1.8445) rotate(0)"><path d="M10 5L5 0L0 5L5 10L0 15L5 20L10 15L15 20L20 15L15 10L20 5L15 0L10 5Z" fill="#312b28"/></g><g transform="translate(1180.44,110.67) scale(1.8445) rotate(0)"><path d="M10 5L5 0L0 5L5 10L0 15L5 20L10 15L15 20L20 15L15 10L20 5L15 0L10 5Z" fill="#3b4acc"/></g><g transform="translate(1217.33,110.67) scale(1.8445) rotate(0)"><path d="M10 5L5 0L0 5L5 10L0 15L5 20L10 15L15 20L20 15L15 10L20 5L15 0L10 5Z" fill="#1b1934"/></g><rect x="0" y="147.55555555555554" width="73.77777777777777" height="73.77777777777777" fill="#19172d"/><g transform="translate(0,147.56) scale(1.8445) rotate(0)"><path d="M10 5L5 0L0 5L5 10L0 15L5 20L10 15L15 20L20 15L15 10L20 5L15 0L10 5Z" fill="#74611b"/></g><g transform="translate(36.89,147.56) scale(1.8445) rotate(0)"><path d="M10 5L5 0L0 5L5 10L0 15L5 20L10 15L15 20L20 15L15 10L20 5L15 0L10 5Z" fill="#79641a"/></g><g transform="translate(0,184.44) scale(1.8445) rotate(0)"><path d="M10 5L5 0L0 5L5 10L0 15L5 20L10 15L15 20L20 15L15 10L20 5L15 0L10 5Z" fill="#1c1b3b"/></g><g transform="translate(36.89,184.44) scale(1.8445) rotate(0)"><path d="M10 5L5 0L0 5L5 10L0 15L5 20L10 15L15 20L20 15L15 10L20 5L15 0L10 5Z" fill="#2f3894"/></g><rect x="73.77777777777777" y="147.55555555555554" width="73.77777777777777" height="73.77777777777777" fill="#19172d"/><g transform="translate(73.78,147.56) scale(1.8445) rotate(0)"><path d="M10 5L5 0L0 5L5 10L0 15L5 20L10 15L15 20L20 15L15 10L20 5L15 0L10 5Z" fill="#524522"/></g><g transform="translate(110.67,147.56) scale(1.8445) rotate(0)"><path d="M10 5L5 0L0 5L5 10L0 15L5 20L10 15L15 20L20 15L15 10L20 5L15 0L10 5Z" fill="#9c8013"/></g><g transform="translate(73.78,184.44) scale(1.8445) rotate(0)"><path d="M10 5L5 0L0 5L5 10L0 15L5 20L10 15L15 20L20 15L15 10L20 5L15 0L10 5Z" fill="#272c6e"/></g><g transform="translate(110.67,184.44) scale(1.8445) rotate(0)"><path d="M10 5L5 0L0 5L5 10L0 15L5 20L10 15L15 20L20 15L15 10L20 5L15 0L10 5Z" fill="#2e3791"/></g><rect x="147.55555555555554" y="147.55555555555554" width="73.77777777777777" height="73.77777777777777" fill="#19172d"/><g transform="translate(147.56,147.56) scale(1.8445) rotate(0)"><path d="M10 5L5 0L0 5L5 10L0 15L5 20L10 15L15 20L20 15L15 10L20 5L15 0L10 5Z" fill="#303998"/></g><g transform="translate(184.44,147.56) scale(1.8445) rotate(0)"><path d="M10 5L5 0L0 5L5 10L0 15L5 20L10 15L15 20L20 15L15 10L20 5L15 0L10 5Z" fill="#2b2529"/></g><g transform="translate(147.56,184.44) scale(1.8445) rotate(0)"><path d="M10 5L5 0L0 5L5 10L0 15L5 20L10 15L15 20L20 15L15 10L20 5L15 0L10 5Z" fill="#2c3385"/></g><g transform="translate(184.44,184.44) scale(1.8445) rotate(0)"><path d="M10 5L5 0L0 5L5 10L0 15L5 20L10 15L15 20L20 15L15 10L20 5L15 0L10 5Z" fill="#2d358a"/></g><rect x="221.33333333333331" y="147.55555555555554" width="73.77777777777777" height="73.77777777777777" fill="#19172d"/><g transform="translate(221.33,147.56) scale(1.8445) rotate(0)"><path d="M10 5L5 0L0 5L5 10L0 15L5 20L10 15L15 20L20 15L15 10L20 5L15 0L10 5Z" fill="#3c4bce"/></g><g transform="translate(258.22,147.56) scale(1.8445) rotate(0)"><path d="M10 5L5 0L0 5L5 10L0 15L5 20L10 15L15 20L20 15L15 10L20 5L15 0L10 5Z" fill="#a38612"/></g><g transform="translate(221.33,184.44) scale(1.8445) rotate(0)"><path d="M10 5L5 0L0 5L5 10L0 15L5 20L10 15L15 20L20 15L15 10L20 5L15 0L10 5Z" fill="#2e3791"/></g><g transform="translate(258.22,184.44) scale(1.8445) rotate(0)"><path d="M10 5L5 0L0 5L5 10L0 15L5 20L10 15L15 20L20 15L15 10L20 5L15 0L10 5Z" fill="#1a1831"/></g><g transform="translate(295.11,147.56) scale(3.689) rotate(0)"><path d="M10 5L5 0L0 5L5 10L0 15L5 20L10 15L15 20L20 15L15 10L20 5L15 0L10 5Z" fill="#ddb507"/></g><g transform="translate(368.89,147.56) scale(3.689) rotate(0)"><path d="M10 5L5 0L0 5L5 10L0 15L5 20L10 15L15 20L20 15L15 10L20 5L15 0L10 5Z" fill="#5c4d20"/></g><g transform="translate(442.67,147.56) scale(3.689) rotate(0)"><path d="M10 5L5 0L0 5L5 10L0 15L5 20L10 15L15 20L20 15L15 10L20 5L15 0L10 5Z" fill="#75611b"/></g><g transform="translate(516.44,147.56) scale(3.689) rotate(0)"><path d="M10 5L5 0L0 5L5 10L0 15L5 20L10 15L15 20L20 15L15 10L20 5L15 0L10 5Z" fill="#4c4023"/></g><g transform="translate(590.22,147.56) scale(3.689) rotate(0)"><path d="M10 5L5 0L0 5L5 10L0 15L5 20L10 15L15 20L20 15L15 10L20 5L15 0L10 5Z" fill="#d0aa09"/></g><g transform="translate(664,147.56) scale(3.689) rotate(0)"><path d="M10 5L5 0L0 5L5 10L0 15L5 20L10 15L15 20L20 15L15 10L20 5L15 0L10 5Z" fill="#3b4acc"/></g><g transform="translate(737.78,147.56) scale(3.689) rotate(0)"><path d="M10 5L5 0L0 5L5 10L0 15L5 20L10 15L15 20L20 15L15 10L20 5L15 0L10 5Z" fill="#25212b"/></g><g transform="translate(811.56,147.56) scale(3.689) rotate(0)"><path d="M10 5L5 0L0 5L5 10L0 15L5 20L10 15L15 20L20 15L15 10L20 5L15 0L10 5Z" fill="#3744b9"/></g><g transform="translate(885.33,147.56) scale(3.689) rotate(0)"><path d="M10 5L5 0L0 5L5 10L0 15L5 20L10 15L15 20L20 15L15 10L20 5L15 0L10 5Z" fill="#212351"/></g><g transform="translate(959.11,147.56) scale(3.689) rotate(0)"><path d="M10 5L5 0L0 5L5 10L0 15L5 20L10 15L15 20L20 15L15 10L20 5L15 0L10 5Z" fill="#f6c802"/></g><g transform="translate(1032.89,147.56) scale(3.689) rotate(0)"><path d="M10 5L5 0L0 5L5 10L0 15L5 20L10 15L15 20L20 15L15 10L20 5L15 0L10 5Z" fill="#f1c503"/></g><g transform="translate(1106.67,147.56) scale(3.689) rotate(0)"><path d="M10 5L5 0L0 5L5 10L0 15L5 20L10 15L15 20L20 15L15 10L20 5L15 0L10 5Z" fill="#c29f0c"/></g><rect x="1180.4444444444443" y="147.55555555555554" width="73.77777777777777" height="73.77777777777777" fill="#19172d"/><g transform="translate(1180.44,147.56) scale(1.8445) rotate(0)"><path d="M10 5L5 0L0 5L5 10L0 15L5 20L10 15L15 20L20 15L15 10L20 5L15 0L10 5Z" fill="#c9a50a"/></g><g transform="translate(1217.33,147.56) scale(1.8445) rotate(0)"><path d="M10 5L5 0L0 5L5 10L0 15L5 20L10 15L15 20L20 15L15 10L20 5L15 0L10 5Z" fill="#4a3f23"/></g><g transform="translate(1180.44,184.44) scale(1.8445) rotate(0)"><path d="M10 5L5 0L0 5L5 10L0 15L5 20L10 15L15 20L20 15L15 10L20 5L15 0L10 5Z" fill="#303997"/></g><g transform="translate(1217.33,184.44) scale(1.8445) rotate(0)"><path d="M10 5L5 0L0 5L5 10L0 15L5 20L10 15L15 20L20 15L15 10L20 5L15 0L10 5Z" fill="#856e18"/></g><g transform="translate(0,221.33) scale(3.689) rotate(0)"><path d="M10 5L5 0L0 5L5 10L0 15L5 20L10 15L15 20L20 15L15 10L20 5L15 0L10 5Z" fill="#23265d"/></g><g transform="translate(73.78,221.33) scale(3.689) rotate(0)"><path d="M10 5L5 0L0 5L5 10L0 15L5 20L10 15L15 20L20 15L15 10L20 5L15 0L10 5Z" fill="#2c3486"/></g><rect x="147.55555555555554" y="221.33333333333331" width="73.77777777777777" height="73.77777777777777" fill="#19172d"/><g transform="translate(147.56,221.33) scale(1.8445) rotate(0)"><path d="M10 5L5 0L0 5L5 10L0 15L5 20L10 15L15 20L20 15L15 10L20 5L15 0L10 5Z" fill="#20214e"/></g><g transform="translate(184.44,221.33) scale(1.8445) rotate(0)"><path d="M10 5L5 0L0 5L5 10L0 15L5 20L10 15L15 20L20 15L15 10L20 5L15 0L10 5Z" fill="#322b28"/></g><g transform="translate(147.56,258.22) scale(1.8445) rotate(0)"><path d="M10 5L5 0L0 5L5 10L0 15L5 20L10 15L15 20L20 15L15 10L20 5L15 0L10 5Z" fill="#1e1f47"/></g><g transform="translate(184.44,258.22) scale(1.8445) rotate(0)"><path d="M10 5L5 0L0 5L5 10L0 15L5 20L10 15L15 20L20 15L15 10L20 5L15 0L10 5Z" fill="#3541b1"/></g><g transform="translate(221.33,221.33) scale(3.689) rotate(0)"><path d="M10 5L5 0L0 5L5 10L0 15L5 20L10 15L15 20L20 15L15 10L20 5L15 0L10 5Z" fill="#ba980e"/></g><g transform="translate(295.11,221.33) scale(3.689) rotate(0)"><path d="M10 5L5 0L0 5L5 10L0 15L5 20L10 15L15 20L20 15L15 10L20 5L15 0L10 5Z" fill="#dbb307"/></g><g transform="translate(368.89,221.33) scale(3.689) rotate(0)"><path d="M10 5L5 0L0 5L5 10L0 15L5 20L10 15L15 20L20 15L15 10L20 5L15 0L10 5Z" fill="#3c3326"/></g><rect x="442.66666666666663" y="221.33333333333331" width="73.77777777777777" height="73.77777777777777" fill="#19172d"/><g transform="translate(442.67,221.33) scale(1.8445) rotate(0)"><path d="M10 5L5 0L0 5L5 10L0 15L5 20L10 15L15 20L20 15L15 10L20 5L15 0L10 5Z" fill="#23265d"/></g><g transform="translate(479.56,221.33) scale(1.8445) rotate(0)"><path d="M10 5L5 0L0 5L5 10L0 15L5 20L10 15L15 20L20 15L15 10L20 5L15 0L10 5Z" fill="#5c4d20"/></g><g transform="translate(442.67,258.22) scale(1.8445) rotate(0)"><path d="M10 5L5 0L0 5L5 10L0 15L5 20L10 15L15 20L20 15L15 10L20 5L15 0L10 5Z" fill="#3b4acd"/></g><g transform="translate(479.56,258.22) scale(1.8445) rotate(0)"><path d="M10 5L5 0L0 5L5 10L0 15L5 20L10 15L15 20L20 15L15 10L20 5L15 0L10 5Z" fill="#23265b"/></g><g transform="translate(516.44,221.33) scale(3.689) rotate(0)"><path d="M10 5L5 0L0 5L5 10L0 15L5 20L10 15L15 20L20 15L15 10L20 5L15 0L10 5Z" fill="#1b1934"/></g><rect x="590.2222222222222" y="221.33333333333331" width="73.77777777777777" height="73.77777777777777" fill="#19172d"/><g transform="translate(590.22,221.33) scale(1.8445) rotate(0)"><path d="M10 5L5 0L0 5L5 10L0 15L5 20L10 15L15 20L20 15L15 10L20 5L15 0L10 5Z" fill="#594a20"/></g><g transform="translate(627.11,221.33) scale(1.8445) rotate(0)"><path d="M10 5L5 0L0 5L5 10L0 15L5 20L10 15L15 20L20 15L15 10L20 5L15 0L10 5Z" fill="#1f1f47"/></g><g transform="translate(590.22,258.22) scale(1.8445) rotate(0)"><path d="M10 5L5 0L0 5L5 10L0 15L5 20L10 15L15 20L20 15L15 10L20 5L15 0L10 5Z" fill="#705d1c"/></g><g transform="translate(627.11,258.22) scale(1.8445) rotate(0)"><path d="M10 5L5 0L0 5L5 10L0 15L5 20L10 15L15 20L20 15L15 10L20 5L15 0L10 5Z" fill="#e9be04"/></g><g transform="translate(664,221.33) scale(3.689) rotate(0)"><path d="M10 5L5 0L0 5L5 10L0 15L5 20L10 15L15 20L20 15L15 10L20 5L15 0L10 5Z" fill="#222558"/></g><g transform="translate(737.78,221.33) scale(3.689) rotate(0)"><path d="M10 5L5 0L0 5L5 10L0 15L5 20L10 15L15 20L20 15L15 10L20 5L15 0L10 5Z" fill="#2f2829"/></g><g transform="translate(811.56,221.33) scale(3.689) rotate(0)"><path d="M10 5L5 0L0 5L5 10L0 15L5 20L10 15L15 20L20 15L15 10L20 5L15 0L10 5Z" fill="#ba980e"/></g><g transform="translate(885.33,221.33) scale(3.689) rotate(0)"><path d="M10 5L5 0L0 5L5 10L0 15L5 20L10 15L15 20L20 15L15 10L20 5L15 0L10 5Z" fill="#a38612"/></g><rect x="959.1111111111111" y="221.33333333333331" width="73.77777777777777" height="73.77777777777777" fill="#19172d"/><g transform="translate(959.11,221.33) scale(1.8445) rotate(0)"><path d="M10 5L5 0L0 5L5 10L0 15L5 20L10 15L15 20L20 15L15 10L20 5L15 0L10 5Z" fill="#3541b1"/></g><g transform="translate(996,221.33) scale(1.8445) rotate(0)"><path d="M10 5L5 0L0 5L5 10L0 15L5 20L10 15L15 20L20 15L15 10L20 5L15 0L10 5Z" fill="#23265a"/></g><g transform="translate(959.11,258.22) scale(1.8445) rotate(0)"><path d="M10 5L5 0L0 5L5 10L0 15L5 20L10 15L15 20L20 15L15 10L20 5L15 0L10 5Z" fill="#2d2729"/></g><g transform="translate(996,258.22) scale(1.8445) rotate(0)"><path d="M10 5L5 0L0 5L5 10L0 15L5 20L10 15L15 20L20 15L15 10L20 5L15 0L10 5Z" fill="#3d4dd4"/></g><g transform="translate(1032.89,221.33) scale(3.689) rotate(0)"><path d="M10 5L5 0L0 5L5 10L0 15L5 20L10 15L15 20L20 15L15 10L20 5L15 0L10 5Z" fill="#1c1b3b"/></g><g transform="translate(1106.67,221.33) scale(3.689) rotate(0)"><path d="M10 5L5 0L0 5L5 10L0 15L5 20L10 15L15 20L20 15L15 10L20 5L15 0L10 5Z" fill="#3440ab"/></g><g transform="translate(1180.44,221.33) scale(3.689) rotate(0)"><path d="M10 5L5 0L0 5L5 10L0 15L5 20L10 15L15 20L20 15L15 10L20 5L15 0L10 5Z" fill="#1f214b"/></g><rect x="0" y="295.1111111111111" width="73.77777777777777" height="73.77777777777777" fill="#19172d"/><g transform="translate(0,295.11) scale(1.8445) rotate(0)"><path d="M10 5L5 0L0 5L5 10L0 15L5 20L10 15L15 20L20 15L15 10L20 5L15 0L10 5Z" fill="#313b9d"/></g><g transform="translate(36.89,295.11) scale(1.8445) rotate(0)"><path d="M10 5L5 0L0 5L5 10L0 15L5 20L10 15L15 20L20 15L15 10L20 5L15 0L10 5Z" fill="#1c1c3d"/></g><g transform="translate(0,332) scale(1.8445) rotate(0)"><path d="M10 5L5 0L0 5L5 10L0 15L5 20L10 15L15 20L20 15L15 10L20 5L15 0L10 5Z" fill="#7e6819"/></g><g transform="translate(36.89,332) scale(1.8445) rotate(0)"><path d="M10 5L5 0L0 5L5 10L0 15L5 20L10 15L15 20L20 15L15 10L20 5L15 0L10 5Z" fill="#20224e"/></g><g transform="translate(73.78,295.11) scale(3.689) rotate(0)"><path d="M10 5L5 0L0 5L5 10L0 15L5 20L10 15L15 20L20 15L15 10L20 5L15 0L10 5Z" fill="#887017"/></g><g transform="translate(147.56,295.11) scale(3.689) rotate(0)"><path d="M10 5L5 0L0 5L5 10L0 15L5 20L10 15L15 20L20 15L15 10L20 5L15 0L10 5Z" fill="#29307a"/></g><rect x="221.33333333333331" y="295.1111111111111" width="73.77777777777777" height="73.77777777777777" fill="#19172d"/><g transform="translate(221.33,295.11) scale(1.8445) rotate(0)"><path d="M10 5L5 0L0 5L5 10L0 15L5 20L10 15L15 20L20 15L15 10L20 5L15 0L10 5Z" fill="#1f2049"/></g><g transform="translate(258.22,295.11) scale(1.8445) rotate(0)"><path d="M10 5L5 0L0 5L5 10L0 15L5 20L10 15L15 20L20 15L15 10L20 5L15 0L10 5Z" fill="#313b9d"/></g><g transform="translate(221.33,332) scale(1.8445) rotate(0)"><path d="M10 5L5 0L0 5L5 10L0 15L5 20L10 15L15 20L20 15L15 10L20 5L15 0L10 5Z" fill="#2c3384"/></g><g transform="translate(258.22,332) scale(1.8445) rotate(0)"><path d="M10 5L5 0L0 5L5 10L0 15L5 20L10 15L15 20L20 15L15 10L20 5L15 0L10 5Z" fill="#2d3589"/></g><g transform="translate(295.11,295.11) scale(3.689) rotate(0)"><path d="M10 5L5 0L0 5L5 10L0 15L5 20L10 15L15 20L20 15L15 10L20 5L15 0L10 5Z" fill="#3b3226"/></g><g transform="translate(368.89,295.11) scale(3.689) rotate(0)"><path d="M10 5L5 0L0 5L5 10L0 15L5 20L10 15L15 20L20 15L15 10L20 5L15 0L10 5Z" fill="#887017"/></g><g transform="translate(442.67,295.11) scale(3.689) rotate(0)"><path d="M10 5L5 0L0 5L5 10L0 15L5 20L10 15L15 20L20 15L15 10L20 5L15 0L10 5Z" fill="#f4c702"/></g><g transform="translate(516.44,295.11) scale(3.689) rotate(0)"><path d="M10 5L5 0L0 5L5 10L0 15L5 20L10 15L15 20L20 15L15 10L20 5L15 0L10 5Z" fill="#7c671a"/></g><g transform="translate(590.22,295.11) scale(3.689) rotate(0)"><path d="M10 5L5 0L0 5L5 10L0 15L5 20L10 15L15 20L20 15L15 10L20 5L15 0L10 5Z" fill="#2c3487"/></g><rect x="664" y="295.1111111111111" width="73.77777777777777" height="73.77777777777777" fill="#19172d"/><g transform="translate(664,295.11) scale(1.8445) rotate(0)"><path d="M10 5L5 0L0 5L5 10L0 15L5 20L10 15L15 20L20 15L15 10L20 5L15 0L10 5Z" fill="#b9970e"/></g><g transform="translate(700.89,295.11) scale(1.8445) rotate(0)"><path d="M10 5L5 0L0 5L5 10L0 15L5 20L10 15L15 20L20 15L15 10L20 5L15 0L10 5Z" fill="#a68811"/></g><g transform="translate(664,332) scale(1.8445) rotate(0)"><path d="M10 5L5 0L0 5L5 10L0 15L5 20L10 15L15 20L20 15L15 10L20 5L15 0L10 5Z" fill="#2b3280"/></g><g transform="translate(700.89,332) scale(1.8445) rotate(0)"><path d="M10 5L5 0L0 5L5 10L0 15L5 20L10 15L15 20L20 15L15 10L20 5L15 0L10 5Z" fill="#1b1935"/></g><g transform="translate(737.78,295.11) scale(3.689) rotate(0)"><path d="M10 5L5 0L0 5L5 10L0 15L5 20L10 15L15 20L20 15L15 10L20 5L15 0L10 5Z" fill="#1c192c"/></g><rect x="811.5555555555554" y="295.1111111111111" width="73.77777777777777" height="73.77777777777777" fill="#19172d"/><g transform="translate(811.56,295.11) scale(1.8445) rotate(0)"><path d="M10 5L5 0L0 5L5 10L0 15L5 20L10 15L15 20L20 15L15 10L20 5L15 0L10 5Z" fill="#3845bd"/></g><g transform="translate(848.44,295.11) scale(1.8445) rotate(0)"><path d="M10 5L5 0L0 5L5 10L0 15L5 20L10 15L15 20L20 15L15 10L20 5L15 0L10 5Z" fill="#20224f"/></g><g transform="translate(811.56,332) scale(1.8445) rotate(0)"><path d="M10 5L5 0L0 5L5 10L0 15L5 20L10 15L15 20L20 15L15 10L20 5L15 0L10 5Z" fill="#fdce00"/></g><g transform="translate(848.44,332) scale(1.8445) rotate(0)"><path d="M10 5L5 0L0 5L5 10L0 15L5 20L10 15L15 20L20 15L15 10L20 5L15 0L10 5Z" fill="#6c5a1d"/></g><g transform="translate(885.33,295.11) scale(3.689) rotate(0)"><path d="M10 5L5 0L0 5L5 10L0 15L5 20L10 15L15 20L20 15L15 10L20 5L15 0L10 5Z" fill="#deb507"/></g><g transform="translate(959.11,295.11) scale(3.689) rotate(0)"><path d="M10 5L5 0L0 5L5 10L0 15L5 20L10 15L15 20L20 15L15 10L20 5L15 0L10 5Z" fill="#1b1b38"/></g><g transform="translate(1032.89,295.11) scale(3.689) rotate(0)"><path d="M10 5L5 0L0 5L5 10L0 15L5 20L10 15L15 20L20 15L15 10L20 5L15 0L10 5Z" fill="#2c3486"/></g><g transform="translate(1106.67,295.11) scale(3.689) rotate(0)"><path d="M10 5L5 0L0 5L5 10L0 15L5 20L10 15L15 20L20 15L15 10L20 5L15 0L10 5Z" fill="#8b7317"/></g><rect x="1180.4444444444443" y="295.1111111111111" width="73.77777777777777" height="73.77777777777777" fill="#19172d"/><g transform="translate(1180.44,295.11) scale(1.8445) rotate(0)"><path d="M10 5L5 0L0 5L5 10L0 15L5 20L10 15L15 20L20 15L15 10L20 5L15 0L10 5Z" fill="#2b3383"/></g><g transform="translate(1217.33,295.11) scale(1.8445) rotate(0)"><path d="M10 5L5 0L0 5L5 10L0 15L5 20L10 15L15 20L20 15L15 10L20 5L15 0L10 5Z" fill="#d8b008"/></g><g transform="translate(1180.44,332) scale(1.8445) rotate(0)"><path d="M10 5L5 0L0 5L5 10L0 15L5 20L10 15L15 20L20 15L15 10L20 5L15 0L10 5Z" fill="#2c3385"/></g><g transform="translate(1217.33,332) scale(1.8445) rotate(0)"><path d="M10 5L5 0L0 5L5 10L0 15L5 20L10 15L15 20L20 15L15 10L20 5L15 0L10 5Z" fill="#1f214b"/></g><g transform="translate(0,368.89) scale(3.689) rotate(0)"><path d="M10 5L5 0L0 5L5 10L0 15L5 20L10 15L15 20L20 15L15 10L20 5L15 0L10 5Z" fill="#393027"/></g><g transform="translate(73.78,368.89) scale(3.689) rotate(0)"><path d="M10 5L5 0L0 5L5 10L0 15L5 20L10 15L15 20L20 15L15 10L20 5L15 0L10 5Z" fill="#2d358a"/></g><g transform="translate(147.56,368.89) scale(3.689) rotate(0)"><path d="M10 5L5 0L0 5L5 10L0 15L5 20L10 15L15 20L20 15L15 10L20 5L15 0L10 5Z" fill="#272b6c"/></g><g transform="translate(221.33,368.89) scale(3.689) rotate(0)"><path d="M10 5L5 0L0 5L5 10L0 15L5 20L10 15L15 20L20 15L15 10L20 5L15 0L10 5Z" fill="#393127"/></g><g transform="translate(295.11,368.89) scale(3.689) rotate(0)"><path d="M10 5L5 0L0 5L5 10L0 15L5 20L10 15L15 20L20 15L15 10L20 5L15 0L10 5Z" fill="#252863"/></g><g transform="translate(368.89,368.89) scale(3.689) rotate(0)"><path d="M10 5L5 0L0 5L5 10L0 15L5 20L10 15L15 20L20 15L15 10L20 5L15 0L10 5Z" fill="#323ca1"/></g><g transform="translate(442.67,368.89) scale(3.689) rotate(0)"><path d="M10 5L5 0L0 5L5 10L0 15L5 20L10 15L15 20L20 15L15 10L20 5L15 0L10 5Z" fill="#8a7217"/></g><g transform="translate(516.44,368.89) scale(3.689) rotate(0)"><path d="M10 5L5 0L0 5L5 10L0 15L5 20L10 15L15 20L20 15L15 10L20 5L15 0L10 5Z" fill="#3744b9"/></g><g transform="translate(590.22,368.89) scale(3.689) rotate(0)"><path d="M10 5L5 0L0 5L5 10L0 15L5 20L10 15L15 20L20 15L15 10L20 5L15 0L10 5Z" fill="#1f2049"/></g><g transform="translate(664,368.89) scale(3.689) rotate(0)"><path d="M10 5L5 0L0 5L5 10L0 15L5 20L10 15L15 20L20 15L15 10L20 5L15 0L10 5Z" fill="#69571d"/></g><g transform="translate(737.78,368.89) scale(3.689) rotate(0)"><path d="M10 5L5 0L0 5L5 10L0 15L5 20L10 15L15 20L20 15L15 10L20 5L15 0L10 5Z" fill="#1d1d3e"/></g><g transform="translate(811.56,368.89) scale(3.689) rotate(0)"><path d="M10 5L5 0L0 5L5 10L0 15L5 20L10 15L15 20L20 15L15 10L20 5L15 0L10 5Z" fill="#212353"/></g><g transform="translate(885.33,368.89) scale(3.689) rotate(0)"><path d="M10 5L5 0L0 5L5 10L0 15L5 20L10 15L15 20L20 15L15 10L20 5L15 0L10 5Z" fill="#6b591d"/></g><g transform="translate(959.11,368.89) scale(3.689) rotate(0)"><path d="M10 5L5 0L0 5L5 10L0 15L5 20L10 15L15 20L20 15L15 10L20 5L15 0L10 5Z" fill="#64531e"/></g><g transform="translate(1032.89,368.89) scale(3.689) rotate(0)"><path d="M10 5L5 0L0 5L5 10L0 15L5 20L10 15L15 20L20 15L15 10L20 5L15 0L10 5Z" fill="#3a48c7"/></g><rect x="1106.6666666666665" y="368.88888888888886" width="73.77777777777777" height="73.77777777777777" fill="#19172d"/><g transform="translate(1106.67,368.89) scale(1.8445) rotate(0)"><path d="M10 5L5 0L0 5L5 10L0 15L5 20L10 15L15 20L20 15L15 10L20 5L15 0L10 5Z" fill="#1c1c3d"/></g><g transform="translate(1143.56,368.89) scale(1.8445) rotate(0)"><path d="M10 5L5 0L0 5L5 10L0 15L5 20L10 15L15 20L20 15L15 10L20 5L15 0L10 5Z" fill="#dcb407"/></g><g transform="translate(1106.67,405.78) scale(1.8445) rotate(0)"><path d="M10 5L5 0L0 5L5 10L0 15L5 20L10 15L15 20L20 15L15 10L20 5L15 0L10 5Z" fill="#292f79"/></g><g transform="translate(1143.56,405.78) scale(1.8445) rotate(0)"><path d="M10 5L5 0L0 5L5 10L0 15L5 20L10 15L15 20L20 15L15 10L20 5L15 0L10 5Z" fill="#1f1f47"/></g><rect x="1180.4444444444443" y="368.88888888888886" width="73.77777777777777" height="73.77777777777777" fill="#19172d"/><g transform="translate(1180.44,368.89) scale(1.8445) rotate(0)"><path d="M10 5L5 0L0 5L5 10L0 15L5 20L10 15L15 20L20 15L15 10L20 5L15 0L10 5Z" fill="#514422"/></g><g transform="translate(1217.33,368.89) scale(1.8445) rotate(0)"><path d="M10 5L5 0L0 5L5 10L0 15L5 20L10 15L15 20L20 15L15 10L20 5L15 0L10 5Z" fill="#a78a11"/></g><g transform="translate(1180.44,405.78) scale(1.8445) rotate(0)"><path d="M10 5L5 0L0 5L5 10L0 15L5 20L10 15L15 20L20 15L15 10L20 5L15 0L10 5Z" fill="#4c4023"/></g><g transform="translate(1217.33,405.78) scale(1.8445) rotate(0)"><path d="M10 5L5 0L0 5L5 10L0 15L5 20L10 15L15 20L20 15L15 10L20 5L15 0L10 5Z" fill="#be9c0d"/></g><g transform="translate(0,442.67) scale(3.689) rotate(0)"><path d="M10 5L5 0L0 5L5 10L0 15L5 20L10 15L15 20L20 15L15 10L20 5L15 0L10 5Z" fill="#262a68"/></g><g transform="translate(73.78,442.67) scale(3.689) rotate(0)"><path d="M10 5L5 0L0 5L5 10L0 15L5 20L10 15L15 20L20 15L15 10L20 5L15 0L10 5Z" fill="#2a317e"/></g><g transform="translate(147.56,442.67) scale(3.689) rotate(0)"><path d="M10 5L5 0L0 5L5 10L0 15L5 20L10 15L15 20L20 15L15 10L20 5L15 0L10 5Z" fill="#554721"/></g><rect x="221.33333333333331" y="442.66666666666663" width="73.77777777777777" height="73.77777777777777" fill="#19172d"/><g transform="translate(221.33,442.67) scale(1.8445) rotate(0)"><path d="M10 5L5 0L0 5L5 10L0 15L5 20L10 15L15 20L20 15L15 10L20 5L15 0L10 5Z" fill="#e9be04"/></g><g transform="translate(258.22,442.67) scale(1.8445) rotate(0)"><path d="M10 5L5 0L0 5L5 10L0 15L5 20L10 15L15 20L20 15L15 10L20 5L15 0L10 5Z" fill="#2e368d"/></g><g transform="translate(221.33,479.56) scale(1.8445) rotate(0)"><path d="M10 5L5 0L0 5L5 10L0 15L5 20L10 15L15 20L20 15L15 10L20 5L15 0L10 5Z" fill="#b09010"/></g><g transform="translate(258.22,479.56) scale(1.8445) rotate(0)"><path d="M10 5L5 0L0 5L5 10L0 15L5 20L10 15L15 20L20 15L15 10L20 5L15 0L10 5Z" fill="#c7a30b"/></g><g transform="translate(295.11,442.67) scale(3.689) rotate(0)"><path d="M10 5L5 0L0 5L5 10L0 15L5 20L10 15L15 20L20 15L15 10L20 5L15 0L10 5Z" fill="#1d1d41"/></g><g transform="translate(368.89,442.67) scale(3.689) rotate(0)"><path d="M10 5L5 0L0 5L5 10L0 15L5 20L10 15L15 20L20 15L15 10L20 5L15 0L10 5Z" fill="#c7a30b"/></g><rect x="442.66666666666663" y="442.66666666666663" width="73.77777777777777" height="73.77777777777777" fill="#19172d"/><g transform="translate(442.67,442.67) scale(1.8445) rotate(0)"><path d="M10 5L5 0L0 5L5 10L0 15L5 20L10 15L15 20L20 15L15 10L20 5L15 0L10 5Z" fill="#68571d"/></g><g transform="translate(479.56,442.67) scale(1.8445) rotate(0)"><path d="M10 5L5 0L0 5L5 10L0 15L5 20L10 15L15 20L20 15L15 10L20 5L15 0L10 5Z" fill="#e5bb05"/></g><g transform="translate(442.67,479.56) scale(1.8445) rotate(0)"><path d="M10 5L5 0L0 5L5 10L0 15L5 20L10 15L15 20L20 15L15 10L20 5L15 0L10 5Z" fill="#333ea8"/></g><g transform="translate(479.56,479.56) scale(1.8445) rotate(0)"><path d="M10 5L5 0L0 5L5 10L0 15L5 20L10 15L15 20L20 15L15 10L20 5L15 0L10 5Z" fill="#efc303"/></g><g transform="translate(516.44,442.67) scale(3.689) rotate(0)"><path d="M10 5L5 0L0 5L5 10L0 15L5 20L10 15L15 20L20 15L15 10L20 5L15 0L10 5Z" fill="#2a307b"/></g><rect x="590.2222222222222" y="442.66666666666663" width="73.77777777777777" height="73.77777777777777" fill="#19172d"/><g transform="translate(590.22,442.67) scale(1.8445) rotate(0)"><path d="M10 5L5 0L0 5L5 10L0 15L5 20L10 15L15 20L20 15L15 10L20 5L15 0L10 5Z" fill="#60501f"/></g><g transform="translate(627.11,442.67) scale(1.8445) rotate(0)"><path d="M10 5L5 0L0 5L5 10L0 15L5 20L10 15L15 20L20 15L15 10L20 5L15 0L10 5Z" fill="#2e3790"/></g><g transform="translate(590.22,479.56) scale(1.8445) rotate(0)"><path d="M10 5L5 0L0 5L5 10L0 15L5 20L10 15L15 20L20 15L15 10L20 5L15 0L10 5Z" fill="#262a68"/></g><g transform="translate(627.11,479.56) scale(1.8445) rotate(0)"><path d="M10 5L5 0L0 5L5 10L0 15L5 20L10 15L15 20L20 15L15 10L20 5L15 0L10 5Z" fill="#c6a20b"/></g><g transform="translate(664,442.67) scale(3.689) rotate(0)"><path d="M10 5L5 0L0 5L5 10L0 15L5 20L10 15L15 20L20 15L15 10L20 5L15 0L10 5Z" fill="#d6af08"/></g><g transform="translate(737.78,442.67) scale(3.689) rotate(0)"><path d="M10 5L5 0L0 5L5 10L0 15L5 20L10 15L15 20L20 15L15 10L20 5L15 0L10 5Z" fill="#5c4d20"/></g><g transform="translate(811.56,442.67) scale(3.689) rotate(0)"><path d="M10 5L5 0L0 5L5 10L0 15L5 20L10 15L15 20L20 15L15 10L20 5L15 0L10 5Z" fill="#23275e"/></g><g transform="translate(885.33,442.67) scale(3.689) rotate(0)"><path d="M10 5L5 0L0 5L5 10L0 15L5 20L10 15L15 20L20 15L15 10L20 5L15 0L10 5Z" fill="#e3b906"/></g><g transform="translate(959.11,442.67) scale(3.689) rotate(0)"><path d="M10 5L5 0L0 5L5 10L0 15L5 20L10 15L15 20L20 15L15 10L20 5L15 0L10 5Z" fill="#4e4123"/></g><g transform="translate(1032.89,442.67) scale(3.689) rotate(0)"><path d="M10 5L5 0L0 5L5 10L0 15L5 20L10 15L15 20L20 15L15 10L20 5L15 0L10 5Z" fill="#393127"/></g><rect x="1106.6666666666665" y="442.66666666666663" width="73.77777777777777" height="73.77777777777777" fill="#19172d"/><g transform="translate(1106.67,442.67) scale(1.8445) rotate(0)"><path d="M10 5L5 0L0 5L5 10L0 15L5 20L10 15L15 20L20 15L15 10L20 5L15 0L10 5Z" fill="#b8970e"/></g><g transform="translate(1143.56,442.67) scale(1.8445) rotate(0)"><path d="M10 5L5 0L0 5L5 10L0 15L5 20L10 15L15 20L20 15L15 10L20 5L15 0L10 5Z" fill="#483d24"/></g><g transform="translate(1106.67,479.56) scale(1.8445) rotate(0)"><path d="M10 5L5 0L0 5L5 10L0 15L5 20L10 15L15 20L20 15L15 10L20 5L15 0L10 5Z" fill="#514422"/></g><g transform="translate(1143.56,479.56) scale(1.8445) rotate(0)"><path d="M10 5L5 0L0 5L5 10L0 15L5 20L10 15L15 20L20 15L15 10L20 5L15 0L10 5Z" fill="#272c6e"/></g><g transform="translate(1180.44,442.67) scale(3.689) rotate(0)"><path d="M10 5L5 0L0 5L5 10L0 15L5 20L10 15L15 20L20 15L15 10L20 5L15 0L10 5Z" fill="#20224f"/></g><rect x="0" y="516.4444444444443" width="73.77777777777777" height="73.77777777777777" fill="#19172d"/><g transform="translate(0,516.44) scale(1.8445) rotate(0)"><path d="M10 5L5 0L0 5L5 10L0 15L5 20L10 15L15 20L20 15L15 10L20 5L15 0L10 5Z" fill="#856e18"/></g><g transform="translate(36.89,516.44) scale(1.8445) rotate(0)"><path d="M10 5L5 0L0 5L5 10L0 15L5 20L10 15L15 20L20 15L15 10L20 5L15 0L10 5Z" fill="#2e368e"/></g><g transform="translate(0,553.33) scale(1.8445) rotate(0)"><path d="M10 5L5 0L0 5L5 10L0 15L5 20L10 15L15 20L20 15L15 10L20 5L15 0L10 5Z" fill="#25212b"/></g><g transform="translate(36.89,553.33) scale(1.8445) rotate(0)"><path d="M10 5L5 0L0 5L5 10L0 15L5 20L10 15L15 20L20 15L15 10L20 5L15 0L10 5Z" fill="#222455"/></g><g transform="translate(73.78,516.44) scale(3.689) rotate(0)"><path d="M10 5L5 0L0 5L5 10L0 15L5 20L10 15L15 20L20 15L15 10L20 5L15 0L10 5Z" fill="#2a307b"/></g><rect x="147.55555555555554" y="516.4444444444443" width="73.77777777777777" height="73.77777777777777" fill="#19172d"/><g transform="translate(147.56,516.44) scale(1.8445) rotate(0)"><path d="M10 5L5 0L0 5L5 10L0 15L5 20L10 15L15 20L20 15L15 10L20 5L15 0L10 5Z" fill="#272b6c"/></g><g transform="translate(184.44,516.44) scale(1.8445) rotate(0)"><path d="M10 5L5 0L0 5L5 10L0 15L5 20L10 15L15 20L20 15L15 10L20 5L15 0L10 5Z" fill="#3a3127"/></g><g transform="translate(147.56,553.33) scale(1.8445) rotate(0)"><path d="M10 5L5 0L0 5L5 10L0 15L5 20L10 15L15 20L20 15L15 10L20 5L15 0L10 5Z" fill="#2e2829"/></g><g transform="translate(184.44,553.33) scale(1.8445) rotate(0)"><path d="M10 5L5 0L0 5L5 10L0 15L5 20L10 15L15 20L20 15L15 10L20 5L15 0L10 5Z" fill="#1a1933"/></g><g transform="translate(221.33,516.44) scale(3.689) rotate(0)"><path d="M10 5L5 0L0 5L5 10L0 15L5 20L10 15L15 20L20 15L15 10L20 5L15 0L10 5Z" fill="#caa50a"/></g><g transform="translate(295.11,516.44) scale(3.689) rotate(0)"><path d="M10 5L5 0L0 5L5 10L0 15L5 20L10 15L15 20L20 15L15 10L20 5L15 0L10 5Z" fill="#252964"/></g><rect x="368.88888888888886" y="516.4444444444443" width="73.77777777777777" height="73.77777777777777" fill="#19172d"/><g transform="translate(368.89,516.44) scale(1.8445) rotate(0)"><path d="M10 5L5 0L0 5L5 10L0 15L5 20L10 15L15 20L20 15L15 10L20 5L15 0L10 5Z" fill="#3542b2"/></g><g transform="translate(405.78,516.44) scale(1.8445) rotate(0)"><path d="M10 5L5 0L0 5L5 10L0 15L5 20L10 15L15 20L20 15L15 10L20 5L15 0L10 5Z" fill="#554721"/></g><g transform="translate(368.89,553.33) scale(1.8445) rotate(0)"><path d="M10 5L5 0L0 5L5 10L0 15L5 20L10 15L15 20L20 15L15 10L20 5L15 0L10 5Z" fill="#594a21"/></g><g transform="translate(405.78,553.33) scale(1.8445) rotate(0)"><path d="M10 5L5 0L0 5L5 10L0 15L5 20L10 15L15 20L20 15L15 10L20 5L15 0L10 5Z" fill="#343fab"/></g><g transform="translate(442.67,516.44) scale(3.689) rotate(0)"><path d="M10 5L5 0L0 5L5 10L0 15L5 20L10 15L15 20L20 15L15 10L20 5L15 0L10 5Z" fill="#292f77"/></g><g transform="translate(516.44,516.44) scale(3.689) rotate(0)"><path d="M10 5L5 0L0 5L5 10L0 15L5 20L10 15L15 20L20 15L15 10L20 5L15 0L10 5Z" fill="#715e1c"/></g><g transform="translate(590.22,516.44) scale(3.689) rotate(0)"><path d="M10 5L5 0L0 5L5 10L0 15L5 20L10 15L15 20L20 15L15 10L20 5L15 0L10 5Z" fill="#d2ab09"/></g><g transform="translate(664,516.44) scale(3.689) rotate(0)"><path d="M10 5L5 0L0 5L5 10L0 15L5 20L10 15L15 20L20 15L15 10L20 5L15 0L10 5Z" fill="#303a9a"/></g><rect x="737.7777777777777" y="516.4444444444443" width="73.77777777777777" height="73.77777777777777" fill="#19172d"/><g transform="translate(737.78,516.44) scale(1.8445) rotate(0)"><path d="M10 5L5 0L0 5L5 10L0 15L5 20L10 15L15 20L20 15L15 10L20 5L15 0L10 5Z" fill="#222559"/></g><g transform="translate(774.67,516.44) scale(1.8445) rotate(0)"><path d="M10 5L5 0L0 5L5 10L0 15L5 20L10 15L15 20L20 15L15 10L20 5L15 0L10 5Z" fill="#313b9e"/></g><g transform="translate(737.78,553.33) scale(1.8445) rotate(0)"><path d="M10 5L5 0L0 5L5 10L0 15L5 20L10 15L15 20L20 15L15 10L20 5L15 0L10 5Z" fill="#3541b1"/></g><g transform="translate(774.67,553.33) scale(1.8445) rotate(0)"><path d="M10 5L5 0L0 5L5 10L0 15L5 20L10 15L15 20L20 15L15 10L20 5L15 0L10 5Z" fill="#212352"/></g><g transform="translate(811.56,516.44) scale(3.689) rotate(0)"><path d="M10 5L5 0L0 5L5 10L0 15L5 20L10 15L15 20L20 15L15 10L20 5L15 0L10 5Z" fill="#715e1c"/></g><g transform="translate(885.33,516.44) scale(3.689) rotate(0)"><path d="M10 5L5 0L0 5L5 10L0 15L5 20L10 15L15 20L20 15L15 10L20 5L15 0L10 5Z" fill="#222456"/></g><g transform="translate(959.11,516.44) scale(3.689) rotate(0)"><path d="M10 5L5 0L0 5L5 10L0 15L5 20L10 15L15 20L20 15L15 10L20 5L15 0L10 5Z" fill="#5a4b20"/></g><g transform="translate(1032.89,516.44) scale(3.689) rotate(0)"><path d="M10 5L5 0L0 5L5 10L0 15L5 20L10 15L15 20L20 15L15 10L20 5L15 0L10 5Z" fill="#303996"/></g><rect x="1106.6666666666665" y="516.4444444444443" width="73.77777777777777" height="73.77777777777777" fill="#19172d"/><g transform="translate(1106.67,516.44) scale(1.8445) rotate(0)"><path d="M10 5L5 0L0 5L5 10L0 15L5 20L10 15L15 20L20 15L15 10L20 5L15 0L10 5Z" fill="#3c4bce"/></g><g transform="translate(1143.56,516.44) scale(1.8445) rotate(0)"><path d="M10 5L5 0L0 5L5 10L0 15L5 20L10 15L15 20L20 15L15 10L20 5L15 0L10 5Z" fill="#252965"/></g><g transform="translate(1106.67,553.33) scale(1.8445) rotate(0)"><path d="M10 5L5 0L0 5L5 10L0 15L5 20L10 15L15 20L20 15L15 10L20 5L15 0L10 5Z" fill="#6a581d"/></g><g transform="translate(1143.56,553.33) scale(1.8445) rotate(0)"><path d="M10 5L5 0L0 5L5 10L0 15L5 20L10 15L15 20L20 15L15 10L20 5L15 0L10 5Z" fill="#c9a40b"/></g><g transform="translate(1180.44,516.44) scale(3.689) rotate(0)"><path d="M10 5L5 0L0 5L5 10L0 15L5 20L10 15L15 20L20 15L15 10L20 5L15 0L10 5Z" fill="#b4940f"/></g><rect x="0" y="590.2222222222222" width="73.77777777777777" height="73.77777777777777" fill="#19172d"/><g transform="translate(0,590.22) scale(1.8445) rotate(0)"><path d="M10 5L5 0L0 5L5 10L0 15L5 20L10 15L15 20L20 15L15 10L20 5L15 0L10 5Z" fill="#28232a"/></g><g transform="translate(36.89,590.22) scale(1.8445) rotate(0)"><path d="M10 5L5 0L0 5L5 10L0 15L5 20L10 15L15 20L20 15L15 10L20 5L15 0L10 5Z" fill="#6f5c1c"/></g><g transform="translate(0,627.11) scale(1.8445) rotate(0)"><path d="M10 5L5 0L0 5L5 10L0 15L5 20L10 15L15 20L20 15L15 10L20 5L15 0L10 5Z" fill="#bf9c0d"/></g><g transform="translate(36.89,627.11) scale(1.8445) rotate(0)"><path d="M10 5L5 0L0 5L5 10L0 15L5 20L10 15L15 20L20 15L15 10L20 5L15 0L10 5Z" fill="#9b8014"/></g><g transform="translate(73.78,590.22) scale(3.689) rotate(0)"><path d="M10 5L5 0L0 5L5 10L0 15L5 20L10 15L15 20L20 15L15 10L20 5L15 0L10 5Z" fill="#1a1932"/></g><g transform="translate(147.56,590.22) scale(3.689) rotate(0)"><path d="M10 5L5 0L0 5L5 10L0 15L5 20L10 15L15 20L20 15L15 10L20 5L15 0L10 5Z" fill="#b9970e"/></g><rect x="221.33333333333331" y="590.2222222222222" width="73.77777777777777" height="73.77777777777777" fill="#19172d"/><g transform="translate(221.33,590.22) scale(1.8445) rotate(0)"><path d="M10 5L5 0L0 5L5 10L0 15L5 20L10 15L15 20L20 15L15 10L20 5L15 0L10 5Z" fill="#3440ad"/></g><g transform="translate(258.22,590.22) scale(1.8445) rotate(0)"><path d="M10 5L5 0L0 5L5 10L0 15L5 20L10 15L15 20L20 15L15 10L20 5L15 0L10 5Z" fill="#272c6e"/></g><g transform="translate(221.33,627.11) scale(1.8445) rotate(0)"><path d="M10 5L5 0L0 5L5 10L0 15L5 20L10 15L15 20L20 15L15 10L20 5L15 0L10 5Z" fill="#8e7516"/></g><g transform="translate(258.22,627.11) scale(1.8445) rotate(0)"><path d="M10 5L5 0L0 5L5 10L0 15L5 20L10 15L15 20L20 15L15 10L20 5L15 0L10 5Z" fill="#282d71"/></g><g transform="translate(295.11,590.22) scale(3.689) rotate(0)"><path d="M10 5L5 0L0 5L5 10L0 15L5 20L10 15L15 20L20 15L15 10L20 5L15 0L10 5Z" fill="#7f6919"/></g><g transform="translate(368.89,590.22) scale(3.689) rotate(0)"><path d="M10 5L5 0L0 5L5 10L0 15L5 20L10 15L15 20L20 15L15 10L20 5L15 0L10 5Z" fill="#2d3488"/></g><g transform="translate(442.67,590.22) scale(3.689) rotate(0)"><path d="M10 5L5 0L0 5L5 10L0 15L5 20L10 15L15 20L20 15L15 10L20 5L15 0L10 5Z" fill="#393027"/></g><g transform="translate(516.44,590.22) scale(3.689) rotate(0)"><path d="M10 5L5 0L0 5L5 10L0 15L5 20L10 15L15 20L20 15L15 10L20 5L15 0L10 5Z" fill="#b3930f"/></g><rect x="590.2222222222222" y="590.2222222222222" width="73.77777777777777" height="73.77777777777777" fill="#19172d"/><g transform="translate(590.22,590.22) scale(1.8445) rotate(0)"><path d="M10 5L5 0L0 5L5 10L0 15L5 20L10 15L15 20L20 15L15 10L20 5L15 0L10 5Z" fill="#262b6b"/></g><g transform="translate(627.11,590.22) scale(1.8445) rotate(0)"><path d="M10 5L5 0L0 5L5 10L0 15L5 20L10 15L15 20L20 15L15 10L20 5L15 0L10 5Z" fill="#8b7317"/></g><g transform="translate(590.22,627.11) scale(1.8445) rotate(0)"><path d="M10 5L5 0L0 5L5 10L0 15L5 20L10 15L15 20L20 15L15 10L20 5L15 0L10 5Z" fill="#252965"/></g><g transform="translate(627.11,627.11) scale(1.8445) rotate(0)"><path d="M10 5L5 0L0 5L5 10L0 15L5 20L10 15L15 20L20 15L15 10L20 5L15 0L10 5Z" fill="#4b3f23"/></g><g transform="translate(664,590.22) scale(3.689) rotate(0)"><path d="M10 5L5 0L0 5L5 10L0 15L5 20L10 15L15 20L20 15L15 10L20 5L15 0L10 5Z" fill="#c6a20b"/></g><g transform="translate(737.78,590.22) scale(3.689) rotate(0)"><path d="M10 5L5 0L0 5L5 10L0 15L5 20L10 15L15 20L20 15L15 10L20 5L15 0L10 5Z" fill="#2a307c"/></g><g transform="translate(811.56,590.22) scale(3.689) rotate(0)"><path d="M10 5L5 0L0 5L5 10L0 15L5 20L10 15L15 20L20 15L15 10L20 5L15 0L10 5Z" fill="#7f6919"/></g><g transform="translate(885.33,590.22) scale(3.689) rotate(0)"><path d="M10 5L5 0L0 5L5 10L0 15L5 20L10 15L15 20L20 15L15 10L20 5L15 0L10 5Z" fill="#2b3281"/></g><g transform="translate(959.11,590.22) scale(3.689) rotate(0)"><path d="M10 5L5 0L0 5L5 10L0 15L5 20L10 15L15 20L20 15L15 10L20 5L15 0L10 5Z" fill="#463b24"/></g><g transform="translate(1032.89,590.22) scale(3.689) rotate(0)"><path d="M10 5L5 0L0 5L5 10L0 15L5 20L10 15L15 20L20 15L15 10L20 5L15 0L10 5Z" fill="#dab207"/></g><rect x="1106.6666666666665" y="590.2222222222222" width="73.77777777777777" height="73.77777777777777" fill="#19172d"/><g transform="translate(1106.67,590.22) scale(1.8445) rotate(0)"><path d="M10 5L5 0L0 5L5 10L0 15L5 20L10 15L15 20L20 15L15 10L20 5L15 0L10 5Z" fill="#e8bd05"/></g><g transform="translate(1143.56,590.22) scale(1.8445) rotate(0)"><path d="M10 5L5 0L0 5L5 10L0 15L5 20L10 15L15 20L20 15L15 10L20 5L15 0L10 5Z" fill="#262b6b"/></g><g transform="translate(1106.67,627.11) scale(1.8445) rotate(0)"><path d="M10 5L5 0L0 5L5 10L0 15L5 20L10 15L15 20L20 15L15 10L20 5L15 0L10 5Z" fill="#333fa8"/></g><g transform="translate(1143.56,627.11) scale(1.8445) rotate(0)"><path d="M10 5L5 0L0 5L5 10L0 15L5 20L10 15L15 20L20 15L15 10L20 5L15 0L10 5Z" fill="#1f1f47"/></g><g transform="translate(1180.44,590.22) scale(3.689) rotate(0)"><path d="M10 5L5 0L0 5L5 10L0 15L5 20L10 15L15 20L20 15L15 10L20 5L15 0L10 5Z" fill="#3a49c8"/></g></g></svg>